{
.appVersion = "3337";
.formatVersion = 3;
DisplayStrings = (
"je tape ce message avec ma propre font :
bebou bebou je t'aime!   "
);
date = "2025-02-10 08:31:00 +0000";
familyName = tragico;
fontMaster = (
{
id = m01;
metricValues = (
{
over = 16;
pos = 760;
},
{
over = 16;
pos = 700;
},
{
over = 16;
pos = 500;
},
{
over = -16;
},
{
over = -16;
pos = -200;
}
);
name = Regular;
}
);
glyphs = (
{
glyphname = a;
lastChange = "2025-03-10 17:41:36 +0000";
layers = (
{
backgroundImage = {
imagePath = "LETTRE/a.png";
locked = 1;
pos = (53,-36);
scale = (1.6254,1.6254);
};
layerId = m01;
shapes = (
{
closed = 1;
nodes = (
(361,29,o),
(257,-16,o),
(200,-16,cs),
(128,-16,o),
(68,4,o),
(68,86,cs),
(68,144,o),
(101,206,o),
(250,240,cs),
(348,262,o),
(366,264,o),
(381,276,c),
(381,228,l),
(318,193,o),
(152,197,o),
(152,103,cs),
(152,17,o),
(302,40,o),
(377,138,c),
(377,95,l)
);
},
{
closed = 1;
nodes = (
(372,315,ls),
(372,421,o),
(335,456,o),
(283,456,cs),
(224,456,o),
(180,422,o),
(163,376,c),
(153,346,o),
(131,338,o),
(110,346,cs),
(86,354,o),
(80,390,o),
(91,408,cs),
(132,472,o),
(197,516,o),
(271,516,cs),
(406,516,o),
(452,455,o),
(452,315,cs),
(452,88,l),
(452,35,o),
(468,86,o),
(529,109,c),
(529,30,o),
(508,-16,o),
(440,-16,cs),
(373,-16,o),
(372,7,o),
(372,161,cs)
);
}
);
width = 580;
},
{
associatedMasterId = m01;
backgroundImage = {
imagePath = "LETTRE/a.png";
locked = 1;
pos = (55,-36);
scale = (1.6254,1.6254);
};
layerId = "F759B092-F70D-4D3E-A0F6-34697660A988";
name = "10 mars 25 à 10:15";
shapes = (
{
closed = 1;
nodes = (
(312,192,o),
(195,196,o),
(198,102,cs),
(201,20,o),
(344,102,o),
(380,142,c),
(380,80,l),
(344,47,o),
(296,-16,o),
(210,-16,cs),
(124,-16,o),
(94,25,o),
(93,80,cs),
(92,135,o),
(88,216,o),
(282,250,cs),
(373,266,o),
(392,307,o),
(380,286,c),
(380,242,l)
);
},
{
closed = 1;
nodes = (
(903,446,ls),
(910,446,o),
(915,441,o),
(915,434,c),
(915,412,l),
(915,405,o),
(911,404,o),
(903,400,c),
(875,388,o),
(863,380,o),
(838,360,cs),
(818,344,o),
(813,332,o),
(802,314,c),
(798,306,o),
(797,302,o),
(790,302,c),
(754,302,l),
(747,302,o),
(742,307,o),
(742,314,cs),
(742,446,l)
);
},
{
closed = 0;
nodes = (
(380,80,l),
(383,29,o),
(367,0,o),
(448,0,cs),
(509,0,o),
(512,92,o),
(508,112,cs),
(507,118,o),
(505,122,o),
(500,122,cs),
(491,122,o),
(486,115,o),
(473,101,cs),
(459,85,o),
(440,106,o),
(440,130,c),
(380,78,l),
(380,12,ls),
(380,5,o),
(385,0,o),
(392,0,cs),
(448,0,l),
(455,0,o),
(460,5,o),
(460,12,cs),
(460,212,o),
(460,248,o),
(460,355,c),
(460,416,o),
(427,516,o),
(322,516,cs),
(217,516,o),
(117,399,o),
(112,367,cs),
(108,344,o),
(134,308,o),
(168,339,cs),
(207,374,o),
(236,433,o),
(296,433,cs),
(356,433,o),
(380,399,o),
(380,358,c),
(380,78,l)
);
}
);
width = 600;
},
{
associatedMasterId = m01;
backgroundImage = {
imagePath = "LETTRE/a.png";
locked = 1;
pos = (12,-36);
scale = (1.6254,1.6254);
};
layerId = "AF503596-147F-4694-885F-A75A5C774157";
name = "10 mars 25 à 12:28";
shapes = (
{
closed = 1;
nodes = (
(341,315,l),
(341,0,ls),
(341,-5,o),
(345,-7,o),
(351,-7,cs),
(357,-7,o),
(361,-5,o),
(368,0,cs),
(501,101,l),
(501,123,l),
(479,116,o),
(456,111,o),
(444,111,cs),
(425,111,o),
(421,127,o),
(421,136,cs),
(421,315,l)
);
},
{
closed = 0;
nodes = (
(375,274,ls),
(375,380,o),
(339,456,o),
(252,456,cs),
(193,456,o),
(149,422,o),
(132,376,c),
(122,346,o),
(100,338,o),
(79,346,cs),
(55,354,o),
(49,390,o),
(60,408,cs),
(101,472,o),
(166,516,o),
(240,516,cs),
(375,516,o),
(458,385,o),
(458,245,cs)
);
}
);
width = 539;
},
{
associatedMasterId = m01;
backgroundImage = {
imagePath = "LETTRE/a.png";
locked = 1;
pos = (12,-36);
scale = (1.6254,1.6254);
};
layerId = "5AE015B8-D24F-46A9-8018-FB499BDEF9B1";
name = "10 mars 25 à 12:43";
shapes = (
{
closed = 1;
nodes = (
(411,136,ls),
(411,127,o),
(415,111,o),
(434,111,cs),
(446,111,o),
(469,116,o),
(491,123,c),
(491,101,l),
(417,0,ls),
(412,-7,o),
(407,-7,o),
(401,-7,cs),
(401,-7,o),
(341,-7,o),
(341,-7,cs),
(335,-7,o),
(331,-5,o),
(331,0,cs),
(331,315,ls),
(331,421,o),
(294,456,o),
(242,456,cs),
(183,456,o),
(139,422,o),
(122,376,c),
(112,346,o),
(90,338,o),
(69,346,cs),
(45,354,o),
(39,390,o),
(50,408,cs),
(91,472,o),
(156,516,o),
(230,516,cs),
(365,516,o),
(411,455,o),
(411,315,cs)
);
},
{
closed = 1;
nodes = (
(347,255,l),
(348,158,l)
);
},
{
closed = 1;
nodes = (
(337,107,l),
(337,49,o),
(227,-16,o),
(141,-16,cs),
(95,-16,o),
(34,-5,o),
(34,82,cs),
(34,174,o),
(116,231,o),
(235,248,cs),
(313,259,o),
(336,267,o),
(336,301,c)
);
}
);
width = 539;
},
{
associatedMasterId = m01;
backgroundImage = {
imagePath = "LETTRE/a.png";
locked = 1;
pos = (12,-36);
scale = (1.6254,1.6254);
};
layerId = "5728CE05-03B1-4917-A131-84C03B59E987";
name = "10 mars 25 à 12:46";
shapes = (
{
closed = 1;
nodes = (
(411,136,ls),
(411,127,o),
(415,111,o),
(434,111,cs),
(446,111,o),
(469,116,o),
(491,123,c),
(491,101,l),
(417,0,ls),
(412,-7,o),
(407,-7,o),
(401,-7,cs),
(401,-7,o),
(341,-7,o),
(341,-7,cs),
(335,-7,o),
(331,-5,o),
(331,0,cs),
(331,315,ls),
(331,421,o),
(294,456,o),
(242,456,cs),
(183,456,o),
(139,422,o),
(122,376,c),
(112,346,o),
(90,338,o),
(69,346,cs),
(45,354,o),
(39,390,o),
(50,408,cs),
(91,472,o),
(156,516,o),
(230,516,cs),
(365,516,o),
(411,455,o),
(411,315,cs)
);
},
{
closed = 1;
nodes = (
(347,255,l),
(348,158,l)
);
},
{
closed = 1;
nodes = (
(337,107,l),
(337,49,o),
(227,-16,o),
(141,-16,cs),
(95,-16,o),
(34,-5,o),
(34,82,cs),
(34,174,o),
(116,212,o),
(235,238,cs),
(313,255,o),
(336,269,o),
(336,303,c)
);
},
{
closed = 1;
nodes = (
(275,195,o),
(143,180,o),
(143,102,cs),
(143,24,o),
(235,57,o),
(334,155,c),
(334,242,l)
);
}
);
width = 539;
},
{
associatedMasterId = m01;
backgroundImage = {
imagePath = "LETTRE/a.png";
locked = 1;
pos = (53,-36);
scale = (1.6254,1.6254);
};
layerId = "5145A753-3F01-4F6F-ABA8-9D3F7D0F0398";
name = "10 mars 25 à 18:25";
shapes = (
{
closed = 1;
nodes = (
(452,65,o),
(465,55,o),
(494,75,c),
(498,75,o),
(512,75,o),
(516,75,c),
(516,4,o),
(482,-16,o),
(436,-16,cs),
(390,-16,o),
(372,16,o),
(372,51,c),
(372,315,ls),
(372,421,o),
(335,456,o),
(283,456,cs),
(224,456,o),
(180,422,o),
(163,376,c),
(153,346,o),
(131,338,o),
(110,346,cs),
(86,354,o),
(80,390,o),
(91,408,cs),
(132,472,o),
(197,516,o),
(271,516,cs),
(406,516,o),
(452,455,o),
(452,315,cs),
(452,80,l)
);
},
{
closed = 1;
nodes = (
(361,29,o),
(257,-16,o),
(200,-16,cs),
(128,-16,o),
(68,4,o),
(68,86,cs),
(68,144,o),
(101,206,o),
(250,240,cs),
(348,262,o),
(366,264,o),
(381,276,c),
(381,240,l),
(318,205,o),
(180,179,o),
(180,108,cs),
(180,22,o),
(302,40,o),
(377,138,c),
(377,95,l)
);
}
);
width = 580;
},
{
associatedMasterId = m01;
backgroundImage = {
imagePath = "LETTRE/a.png";
locked = 1;
pos = (53,-36);
scale = (1.6254,1.6254);
};
layerId = "3E004E66-8718-47CA-98E0-0111476C53C5";
name = "10 mars 25 à 18:36";
shapes = (
{
closed = 1;
nodes = (
(452,65,o),
(465,55,o),
(494,75,c),
(498,75,o),
(512,75,o),
(516,75,c),
(516,4,o),
(482,-16,o),
(436,-16,cs),
(390,-16,o),
(372,16,o),
(372,51,c),
(372,315,ls),
(372,421,o),
(335,456,o),
(283,456,cs),
(224,456,o),
(180,422,o),
(163,376,c),
(153,346,o),
(131,338,o),
(110,346,cs),
(86,354,o),
(80,390,o),
(91,408,cs),
(132,472,o),
(197,516,o),
(271,516,cs),
(406,516,o),
(452,455,o),
(452,315,cs),
(452,80,l)
);
},
{
closed = 1;
nodes = (
(361,29,o),
(257,-16,o),
(200,-16,cs),
(128,-16,o),
(68,4,o),
(68,86,cs),
(68,144,o),
(101,206,o),
(250,240,cs),
(348,262,o),
(366,264,o),
(381,276,c),
(381,228,l),
(318,193,o),
(152,197,o),
(152,103,cs),
(152,17,o),
(302,40,o),
(377,138,c),
(377,95,l)
);
}
);
width = 580;
},
{
associatedMasterId = m01;
backgroundImage = {
imagePath = "LETTRE/a.png";
locked = 1;
pos = (53,-36);
scale = (1.6254,1.6254);
};
layerId = "AC6C2327-C7CA-4B23-A90D-91EC5C356143";
name = "10 mars 25 à 18:38";
shapes = (
{
closed = 1;
nodes = (
(361,29,o),
(257,-16,o),
(200,-16,cs),
(128,-16,o),
(68,4,o),
(68,86,cs),
(68,144,o),
(101,206,o),
(250,240,cs),
(348,262,o),
(366,264,o),
(381,276,c),
(381,228,l),
(318,193,o),
(152,197,o),
(152,103,cs),
(152,17,o),
(302,40,o),
(377,138,c),
(377,95,l)
);
},
{
closed = 1;
nodes = (
(452,127,o),
(456,111,o),
(475,111,cs),
(487,111,o),
(510,116,o),
(532,123,c),
(532,101,l),
(399,0,ls),
(392,-5,o),
(388,-7,o),
(382,-7,cs),
(376,-7,o),
(372,-5,o),
(372,0,cs),
(372,315,ls),
(372,421,o),
(335,456,o),
(283,456,cs),
(224,456,o),
(180,422,o),
(163,376,c),
(153,346,o),
(131,338,o),
(110,346,cs),
(86,354,o),
(80,390,o),
(91,408,cs),
(132,472,o),
(197,516,o),
(271,516,cs),
(406,516,o),
(452,455,o),
(452,315,cs),
(452,136,ls)
);
}
);
width = 580;
}
);
unicode = 97;
},
{
glyphname = b;
lastChange = "2025-03-11 16:54:01 +0000";
layers = (
{
backgroundImage = {
imagePath = "/Users/theoverzeletti/Desktop/Capture d’écran 2025-02-10 à 13.48.44.png";
locked = 1;
pos = (-48,-45);
scale = (1.9659,1.9659);
};
layerId = m01;
shapes = (
{
closed = 1;
nodes = (
(213,-16,o),
(110,144,o),
(110,267,cs),
(110,387,o),
(193,516,o),
(328,516,cs),
(455,516,o),
(554,392,o),
(554,249,cs),
(554,109,o),
(475,-16,o),
(340,-16,cs)
);
},
{
closed = 1;
nodes = (
(439,44,o),
(471,118,o),
(471,224,cs),
(471,368,o),
(399,456,o),
(316,456,cs),
(229,456,o),
(190,382,o),
(190,296,cs),
(190,172,o),
(265,44,o),
(352,44,cs)
);
},
{
closed = 1;
nodes = (
(190,4,o),
(186,0,o),
(177,0,cs),
(48,0,ls),
(39,0,o),
(35,4,o),
(35,13,cs),
(35,55,ls),
(35,64,o),
(39,68,o),
(48,68,cs),
(110,68,l),
(110,624,ls),
(110,633,o),
(106,637,o),
(97,637,cs),
(30,637,l),
(30,659,l),
(163,760,ls),
(170,765,o),
(174,767,o),
(180,767,cs),
(186,767,o),
(190,765,o),
(190,760,cs),
(190,13,ls)
);
}
);
width = 587;
},
{
associatedMasterId = m01;
backgroundImage = {
imagePath = "/Users/theoverzeletti/Desktop/Capture d’écran 2025-02-10 à 13.48.44.png";
locked = 1;
pos = (-11,-45);
scale = (1.9659,1.9659);
};
layerId = "65FF2A5B-D37B-471F-9323-29922A7A4A12";
name = "10 févr. 25 à 13:51";
shapes = (
{
closed = 1;
nodes = (
(-247,-130,l),
(-240,-130,o),
(-235,-135,o),
(-235,-142,c),
(-235,-188,l),
(-235,-195,o),
(-240,-200,o),
(-247,-200,c),
(-453,-200,ls),
(-460,-200,o),
(-465,-195,o),
(-465,-188,c),
(-465,-142,l),
(-465,-135,o),
(-460,-130,o),
(-453,-130,c)
);
},
{
closed = 1;
nodes = (
(-390,-150,l),
(-390,344,ls),
(-390,351,o),
(-390,356,o),
(-390,356,c),
(-471,356,ls),
(-478,356,o),
(-483,361,o),
(-483,368,c),
(-483,390,l),
(-483,397,o),
(-479,398,o),
(-471,402,c),
(-443,414,o),
(-431,422,o),
(-406,442,cs),
(-386,458,o),
(-381,470,o),
(-370,488,c),
(-366,496,o),
(-365,500,o),
(-358,500,c),
(-322,500,l),
(-315,500,o),
(-310,495,o),
(-310,488,cs),
(-310,-150,l)
);
},
{
closed = 1;
nodes = (
(258,70,l),
(265,70,o),
(270,65,o),
(270,58,c),
(270,12,l),
(270,5,o),
(265,0,o),
(258,0,c),
(52,0,ls),
(45,0,o),
(40,5,o),
(40,12,c),
(40,58,l),
(40,65,o),
(45,70,o),
(52,70,c)
);
},
{
closed = 1;
nodes = (
(115,50,l),
(115,544,ls),
(115,551,o),
(115,556,o),
(115,556,c),
(34,556,ls),
(27,556,o),
(22,561,o),
(22,568,c),
(22,590,l),
(22,597,o),
(26,598,o),
(34,602,c),
(62,614,o),
(74,622,o),
(99,642,cs),
(119,658,o),
(124,670,o),
(135,688,c),
(139,696,o),
(140,700,o),
(147,700,c),
(183,700,l),
(190,700,o),
(195,695,o),
(195,688,cs),
(195,50,l)
);
}
);
width = 600;
},
{
associatedMasterId = m01;
backgroundImage = {
imagePath = "/Users/theoverzeletti/Desktop/Capture d’écran 2025-02-10 à 13.48.44.png";
locked = 1;
pos = (-11,-45);
scale = (1.9659,1.9659);
};
layerId = "21A964C4-3AA0-4636-B572-D0F4A1530530";
name = "10 févr. 25 à 14:22";
shapes = (
{
closed = 1;
nodes = (
(115,50,l),
(115,544,ls),
(115,551,o),
(115,556,o),
(115,556,c),
(34,556,ls),
(27,556,o),
(22,561,o),
(22,568,c),
(22,590,l),
(22,597,o),
(26,598,o),
(34,602,c),
(62,614,o),
(74,622,o),
(99,642,cs),
(119,658,o),
(124,670,o),
(135,688,c),
(139,696,o),
(140,700,o),
(147,700,c),
(183,700,l),
(190,700,o),
(195,695,o),
(195,688,cs),
(195,50,l)
);
},
{
closed = 1;
nodes = (
(230,296,o),
(214,380,o),
(324,380,cs),
(434,380,o),
(447,281,o),
(444,214,cs),
(441,147,o),
(389,52,o),
(310,52,cs),
(231,52,o),
(187,107,o),
(187,150,c),
(183,254,l)
);
},
{
closed = 1;
nodes = (
(228,377,o),
(228,453,o),
(351,453,cs),
(474,453,o),
(531,365,o),
(531,236,cs),
(531,107,o),
(461,-16,o),
(307,-16,cs),
(233,-16,o),
(115,0,o),
(115,50,c),
(167,339,l)
);
}
);
width = 600;
},
{
associatedMasterId = m01;
backgroundImage = {
imagePath = "/Users/theoverzeletti/Desktop/Capture d’écran 2025-02-10 à 13.48.44.png";
locked = 1;
pos = (-11,-45);
scale = (1.9659,1.9659);
};
layerId = "D0753E40-E41E-434F-A6EF-ECF925CADD83";
name = "10 févr. 25 à 14:30";
shapes = (
{
closed = 1;
nodes = (
(224,-16,o),
(132,88,o),
(132,216,cs),
(132,343,o),
(224,447,o),
(335,447,cs),
(447,447,o),
(538,343,o),
(538,216,cs),
(538,88,o),
(447,-16,o),
(335,-16,cs)
);
},
{
closed = 1;
nodes = (
(383,62,o),
(442,134,o),
(442,223,cs),
(442,312,o),
(383,384,o),
(309,384,cs),
(236,384,o),
(177,312,o),
(177,223,cs),
(177,134,o),
(236,62,o),
(309,62,cs)
);
},
{
closed = 1;
nodes = (
(48,556,ls),
(41,556,o),
(36,561,o),
(36,568,c),
(36,590,l),
(36,597,o),
(40,598,o),
(48,602,c),
(76,614,o),
(88,622,o),
(113,642,cs),
(133,658,o),
(138,670,o),
(149,688,c),
(153,696,o),
(154,700,o),
(161,700,c),
(197,700,l),
(204,700,o),
(209,695,o),
(209,688,c),
(209,688,o),
(209,551,o),
(209,-4,cs),
(209,-11,o),
(204,-16,o),
(197,-16,c),
(161,-16,l),
(154,-16,o),
(153,-12,o),
(149,-4,c),
(138,14,o),
(133,26,o),
(113,42,cs),
(88,62,o),
(76,70,o),
(48,82,c),
(40,86,o),
(36,87,o),
(36,94,c),
(36,116,l),
(36,123,o),
(41,128,o),
(48,128,cs),
(129,128,l),
(129,128,o),
(129,133,o),
(129,140,cs),
(129,237,o),
(129,420,o),
(129,556,c)
);
}
);
width = 600;
},
{
associatedMasterId = m01;
backgroundImage = {
imagePath = "/Users/theoverzeletti/Desktop/Capture d’écran 2025-02-10 à 13.48.44.png";
locked = 1;
pos = (-11,-45);
scale = (1.9659,1.9659);
};
layerId = "C4D5133F-F701-4028-B80E-C080674C3E95";
name = "10 févr. 25 à 18:17";
shapes = (
{
closed = 1;
nodes = (
(447,-16,o),
(538,88,o),
(538,216,cs),
(538,343,o),
(447,447,o),
(335,447,cs),
(224,447,o),
(132,343,o),
(132,216,cs),
(132,88,o),
(224,-16,o),
(335,-16,cs)
);
},
{
closed = 1;
nodes = (
(236,62,o),
(177,134,o),
(177,223,cs),
(177,312,o),
(236,384,o),
(309,384,cs),
(383,384,o),
(442,312,o),
(442,223,cs),
(442,134,o),
(383,62,o),
(309,62,cs)
);
},
{
closed = 1;
nodes = (
(204,-16,o),
(209,-11,o),
(209,-4,cs),
(209,551,o),
(209,688,o),
(209,688,c),
(209,695,o),
(204,700,o),
(197,700,c),
(161,700,l),
(154,700,o),
(153,696,o),
(149,688,c),
(138,670,o),
(133,658,o),
(113,642,cs),
(88,622,o),
(76,614,o),
(48,602,c),
(40,598,o),
(36,597,o),
(36,590,c),
(36,568,l),
(36,561,o),
(41,556,o),
(48,556,cs),
(129,556,l),
(129,420,o),
(129,93,o),
(129,-4,cs),
(129,-11,o),
(134,-16,o),
(141,-16,cs),
(197,-16,l)
);
}
);
width = 600;
}
);
unicode = 98;
},
{
glyphname = c;
lastChange = "2025-03-11 15:35:05 +0000";
layers = (
{
backgroundImage = {
imagePath = "LETTRE/c.png";
locked = 1;
pos = (-1,-54);
scale = (1.1722,1.1722);
};
layerId = m01;
shapes = (
{
closed = 1;
nodes = (
(399,26,o),
(339,-18,o),
(259,-18,cs),
(132,-18,o),
(29,102,o),
(29,245,cs),
(29,385,o),
(112,516,o),
(247,516,cs),
(321,516,o),
(386,472,o),
(427,408,cs),
(438,390,o),
(432,354,o),
(408,346,cs),
(387,338,o),
(365,346,o),
(355,376,c),
(338,422,o),
(294,456,o),
(235,456,cs),
(148,456,o),
(112,380,o),
(112,274,cs),
(112,130,o),
(184,42,o),
(271,42,cs),
(325,42,o),
(358,71,o),
(375,119,c),
(435,91,l)
);
}
);
width = 462;
},
{
associatedMasterId = m01;
backgroundImage = {
imagePath = "LETTRE/c.png";
locked = 1;
pos = (8,-54);
scale = (1.1722,1.1722);
};
layerId = "C62AE27B-F26D-4A1E-A594-05E8383971E0";
name = "10 mars 25 à 12:00";
shapes = (
{
closed = 1;
nodes = (
(347,422,o),
(303,456,o),
(244,456,cs),
(157,456,o),
(121,380,o),
(121,274,cs),
(121,130,o),
(193,42,o),
(280,42,cs),
(334,42,o),
(367,71,o),
(384,119,c),
(391,144,o),
(411,150,o),
(428,144,cs),
(448,137,o),
(453,107,o),
(444,91,c),
(408,26,o),
(348,-18,o),
(268,-18,cs),
(141,-18,o),
(38,102,o),
(38,245,cs),
(38,385,o),
(121,516,o),
(256,516,cs),
(330,516,o),
(395,472,o),
(436,408,cs),
(447,390,o),
(441,354,o),
(417,346,cs),
(396,338,o),
(374,346,o),
(364,376,c)
);
}
);
width = 476;
},
{
associatedMasterId = m01;
backgroundImage = {
imagePath = "LETTRE/c.png";
locked = 1;
pos = (8,-54);
scale = (1.1722,1.1722);
};
layerId = "A4699AD9-C69E-443E-AAA6-1C861CFC9100";
name = "10 mars 25 à 12:02";
shapes = (
{
closed = 0;
nodes = (
(390,463,l),
(353,496,o),
(307,516,o),
(256,516,cs),
(121,516,o),
(38,387,o),
(38,247,cs),
(38,104,o),
(141,-16,o),
(268,-16,cs),
(338,-16,o),
(392,17,o),
(429,69,c)
);
},
{
closed = 0;
nodes = (
(376,101,l),
(357,65,o),
(326,44,o),
(280,44,cs),
(193,44,o),
(121,132,o),
(121,276,cs),
(121,382,o),
(157,456,o),
(244,456,cs),
(279,456,o),
(312,440,o),
(339,411,c)
);
}
);
width = 600;
},
{
associatedMasterId = m01;
backgroundImage = {
imagePath = "LETTRE/c.png";
locked = 1;
pos = (8,-54);
scale = (1.1722,1.1722);
};
layerId = "1BDC8AA5-04F1-46E2-9327-419AA0DD97A6";
name = "10 mars 25 à 12:07";
shapes = (
{
closed = 0;
nodes = (
(399,211,l),
(396,112,o),
(363,44,o),
(280,44,cs),
(193,44,o),
(121,132,o),
(121,276,cs),
(121,382,o),
(157,456,o),
(244,456,cs),
(303,456,o),
(356,412,o),
(382,335,c),
(388,320,o),
(415,332,o),
(430,341,cs),
(445,350,o),
(450,387,o),
(436,408,c),
(395,472,o),
(330,516,o),
(256,516,cs),
(121,516,o),
(38,387,o),
(38,247,cs),
(38,104,o),
(141,-16,o),
(268,-16,cs),
(390,-16,o),
(466,86,o),
(480,209,c)
);
}
);
width = 600;
},
{
associatedMasterId = m01;
backgroundImage = {
imagePath = "LETTRE/c.png";
locked = 1;
pos = (8,-54);
scale = (1.1722,1.1722);
};
layerId = "27F8A6B6-8F9D-485D-A3A2-7A4AEBFC4CDB";
name = "10 mars 25 à 12:08";
shapes = (
{
closed = 1;
nodes = (
(408,28,o),
(348,-16,o),
(268,-16,cs),
(141,-16,o),
(38,104,o),
(38,247,cs),
(38,387,o),
(121,516,o),
(256,516,cs),
(330,516,o),
(395,472,o),
(436,408,c),
(450,387,o),
(445,350,o),
(430,341,cs),
(415,332,o),
(388,322,o),
(382,335,c),
(356,412,o),
(303,456,o),
(244,456,cs),
(157,456,o),
(121,382,o),
(121,276,cs),
(121,132,o),
(193,44,o),
(280,44,cs),
(334,44,o),
(367,73,o),
(384,121,c),
(391,146,o),
(411,152,o),
(428,146,cs),
(448,139,o),
(453,109,o),
(444,93,c)
);
},
{
closed = 0;
nodes = (
(433,320,l),
(444,302,o),
(438,267,o),
(415,259,cs),
(395,252,o),
(372,259,o),
(364,288,c)
);
}
);
width = 600;
}
);
unicode = 99;
},
{
glyphname = d;
lastChange = "2025-03-10 15:23:38 +0000";
layers = (
{
backgroundImage = {
imagePath = "/Users/theoverzeletti/Desktop/Capture d’écran 2025-02-10 à 14.05.55.png";
locked = 1;
pos = (-141,-129);
scale = (4.2872,4.2872);
};
layerId = m01;
shapes = (
{
closed = 1;
nodes = (
(377,-16,o),
(480,144,o),
(480,267,cs),
(480,387,o),
(397,516,o),
(262,516,cs),
(135,516,o),
(36,392,o),
(36,249,cs),
(36,109,o),
(115,-16,o),
(250,-16,cs)
);
},
{
closed = 1;
nodes = (
(151,44,o),
(119,118,o),
(119,224,cs),
(119,368,o),
(191,456,o),
(274,456,cs),
(361,456,o),
(400,382,o),
(400,296,cs),
(400,172,o),
(325,44,o),
(238,44,cs)
);
},
{
closed = 1;
nodes = (
(542,0,ls),
(551,0,o),
(555,4,o),
(555,13,cs),
(555,55,ls),
(555,64,o),
(551,68,o),
(542,68,cs),
(480,68,l),
(480,624,ls),
(480,633,o),
(484,637,o),
(493,637,cs),
(560,637,l),
(560,659,l),
(427,760,ls),
(420,765,o),
(416,767,o),
(410,767,cs),
(404,767,o),
(400,765,o),
(400,760,cs),
(400,13,ls),
(400,4,o),
(404,0,o),
(413,0,cs)
);
}
);
width = 600;
},
{
associatedMasterId = m01;
backgroundImage = {
imagePath = "/Users/theoverzeletti/Desktop/Capture d’écran 2025-02-10 à 14.05.55.png";
locked = 1;
pos = (-141,-129);
scale = (4.2872,4.2872);
};
layerId = "1D26EA21-E2CB-49FD-B90C-1E9B48C8BB76";
name = "10 févr. 25 à 14:13";
shapes = (
{
closed = 1;
nodes = (
(498,109,o),
(445,77,o),
(498,109,cs),
(511,117,o),
(506,55,o),
(498,40,cs),
(487,20,o),
(391,-16,o),
(372,-16,cs),
(366,-16,o),
(365,-5,o),
(365,0,c),
(365,544,ls),
(365,551,o),
(365,556,o),
(365,556,c),
(284,556,ls),
(277,556,o),
(272,561,o),
(272,568,c),
(272,590,l),
(272,597,o),
(276,598,o),
(284,602,c),
(312,614,o),
(324,622,o),
(349,642,cs),
(369,658,o),
(374,670,o),
(385,688,c),
(389,696,o),
(390,700,o),
(397,700,c),
(433,700,l),
(440,700,o),
(445,695,o),
(445,688,cs),
(445,484,o),
(445,281,o),
(445,77,c)
);
},
{
closed = 0;
nodes = (
(445,-13,ls),
(445,-6,o),
(445,-1,o),
(445,-1,c),
(526,-1,ls),
(533,-1,o),
(538,4,o),
(538,11,c),
(538,33,l),
(538,40,o),
(534,41,o),
(526,45,c),
(498,57,o),
(486,65,o),
(461,85,cs),
(441,101,o),
(436,113,o),
(425,131,c),
(421,139,o),
(420,143,o),
(413,143,c),
(377,143,l),
(370,143,o),
(365,138,o),
(365,131,cs)
);
}
);
width = 600;
},
{
associatedMasterId = m01;
backgroundImage = {
imagePath = "/Users/theoverzeletti/Desktop/Capture d’écran 2025-02-10 à 14.05.55.png";
locked = 1;
pos = (-141,-129);
scale = (4.2872,4.2872);
};
layerId = "5F245BD9-3A9A-4BDA-A81E-5D67AC76C1F0";
name = "10 févr. 25 à 14:15";
shapes = (
{
closed = 0;
nodes = (
(365,183,l),
(365,544,ls),
(365,551,o),
(365,556,o),
(365,556,c),
(284,556,ls),
(277,556,o),
(272,561,o),
(272,568,c),
(272,590,l),
(272,597,o),
(276,598,o),
(284,602,c),
(312,614,o),
(324,622,o),
(349,642,cs),
(369,658,o),
(374,670,o),
(385,688,c),
(389,696,o),
(390,700,o),
(397,700,c),
(433,700,l),
(440,700,o),
(445,695,o),
(445,688,cs),
(445,520,o),
(445,353,o),
(445,185,c)
);
},
{
closed = 0;
nodes = (
(448,16,l),
(505,73,ls),
(510,78,o),
(510,85,o),
(505,90,c),
(489,106,l),
(484,111,o),
(481,109,o),
(472,106,c),
(444,95,o),
(430,92,o),
(398,88,cs),
(373,85,o),
(361,90,o),
(340,95,c),
(332,98,o),
(328,100,o),
(323,95,c),
(298,70,l),
(293,65,o),
(293,58,o),
(298,53,cs)
);
}
);
width = 600;
},
{
associatedMasterId = m01;
backgroundImage = {
imagePath = "/Users/theoverzeletti/Desktop/Capture d’écran 2025-02-10 à 14.05.55.png";
locked = 1;
pos = (-141,-129);
scale = (4.2872,4.2872);
};
layerId = "C4B6CD09-212A-4E70-A115-758982E0E7C1";
name = "10 févr. 25 à 14:17";
shapes = (
{
closed = 1;
nodes = (
(453,99,o),
(462,102,o),
(472,106,c),
(481,109,o),
(484,111,o),
(489,106,c),
(505,90,l),
(510,85,o),
(510,77,o),
(505,73,cs),
(440,23,ls),
(415,4,o),
(361,-31,o),
(361,-4,cs),
(361,129,o),
(364,117,o),
(365,183,c),
(365,544,ls),
(365,551,o),
(365,556,o),
(365,556,c),
(284,556,ls),
(277,556,o),
(272,561,o),
(272,568,c),
(272,590,l),
(272,597,o),
(276,598,o),
(284,602,c),
(312,614,o),
(324,622,o),
(349,642,cs),
(369,658,o),
(374,670,o),
(385,688,c),
(389,696,o),
(390,700,o),
(397,700,c),
(433,700,l),
(440,700,o),
(445,695,o),
(445,688,cs),
(445,520,o),
(445,265,o),
(445,97,c)
);
}
);
width = 600;
}
);
unicode = 100;
},
{
glyphname = e;
lastChange = "2025-03-11 14:46:04 +0000";
layers = (
{
backgroundImage = {
imagePath = "LETTRE/e copie.png";
locked = 1;
pos = (33,-35);
scale = (3.5654,3.5654);
};
layerId = m01;
shapes = (
{
closed = 1;
nodes = (
(410,26,o),
(350,-18,o),
(270,-18,cs),
(143,-18,o),
(40,103,o),
(40,247,cs),
(40,387,o),
(123,516,o),
(258,516,cs),
(346,516,o),
(425,454,o),
(462,363,cs),
(462,363,o),
(465,355,o),
(462,353,cs),
(456,350,o),
(462,353,o),
(456,350,c),
(112,228,l),
(114,295,l),
(341,374,l),
(350,378,o),
(350,378,o),
(359,382,cs),
(362,383,o),
(357,391,o),
(357,391,c),
(329,434,o),
(288,456,o),
(246,456,cs),
(159,456,o),
(123,382,o),
(123,276,cs),
(123,130,o),
(195,42,o),
(282,42,cs),
(336,42,o),
(369,71,o),
(386,119,c),
(387,125,o),
(451,99,o),
(446,91,c)
);
}
);
width = 531;
},
{
associatedMasterId = m01;
backgroundImage = {
imagePath = "LETTRE/e copie.png";
locked = 1;
pos = (61,-35);
scale = (3.5654,3.5654);
};
layerId = "CA1FF8BD-0E0D-48D5-ADF9-84F6FDCD3218";
name = "10 mars 25 à 12:14";
shapes = (
{
closed = 0;
nodes = (
(140,227,l),
(489,365,l),
(453,453,o),
(377,516,o),
(286,516,cs),
(151,516,o),
(68,387,o),
(68,247,cs),
(68,103,o),
(171,-18,o),
(298,-18,cs),
(378,-18,o),
(438,26,o),
(474,91,c),
(483,107,o),
(478,137,o),
(458,144,cs),
(441,150,o),
(421,144,o),
(414,119,c),
(397,71,o),
(364,42,o),
(310,42,cs),
(223,42,o),
(151,130,o),
(151,276,cs),
(151,382,o),
(187,456,o),
(274,456,cs),
(357,456,o),
(429,368,o),
(429,224,cs)
);
},
{
closed = 0;
nodes = (
(142,295,l),
(398,384,l)
);
}
);
width = 600;
},
{
associatedMasterId = m01;
backgroundImage = {
imagePath = "LETTRE/e copie.png";
locked = 1;
pos = (61,-35);
scale = (3.5654,3.5654);
};
layerId = "1D9F00D6-E453-4E3D-AD00-EA7925801AD9";
name = "10 mars 25 à 12:16";
shapes = (
{
closed = 1;
nodes = (
(391,381,l),
(363,430,o),
(319,456,o),
(274,456,cs),
(187,456,o),
(151,382,o),
(151,276,cs),
(151,130,o),
(223,42,o),
(310,42,cs),
(364,42,o),
(397,71,o),
(414,119,c),
(421,144,o),
(441,150,o),
(458,144,cs),
(478,137,o),
(483,107,o),
(474,91,c),
(438,26,o),
(378,-18,o),
(298,-18,cs),
(171,-18,o),
(68,103,o),
(68,247,cs),
(68,387,o),
(151,516,o),
(286,516,cs),
(377,516,o),
(453,453,o),
(489,365,c),
(140,227,l),
(142,295,l)
);
},
{
closed = 0;
nodes = (
(429,224,l)
);
}
);
width = 600;
},
{
associatedMasterId = m01;
backgroundImage = {
imagePath = "LETTRE/e copie.png";
locked = 1;
pos = (61,-35);
scale = (3.5654,3.5654);
};
layerId = "6B861466-5398-45DB-91A5-07962A42E1CD";
name = "10 mars 25 à 12:18";
shapes = (
{
closed = 1;
nodes = (
(391,381,l),
(363,430,o),
(319,456,o),
(274,456,cs),
(187,456,o),
(151,382,o),
(151,276,cs),
(151,130,o),
(223,42,o),
(310,42,cs),
(364,42,o),
(397,71,o),
(414,119,c),
(421,144,o),
(441,150,o),
(458,144,cs),
(478,137,o),
(483,107,o),
(474,91,c),
(438,26,o),
(378,-18,o),
(298,-18,cs),
(171,-18,o),
(68,103,o),
(68,247,cs),
(68,387,o),
(151,516,o),
(286,516,cs),
(374,516,o),
(449,456,o),
(486,372,cs),
(486,372,o),
(489,364,o),
(486,362,cs),
(480,359,o),
(486,362,o),
(480,359,c),
(140,227,l),
(142,295,l)
);
},
{
closed = 0;
nodes = (
(429,224,l)
);
},
{
closed = 0;
nodes = (
(385,390,ls),
(385,390,o),
(388,382,o),
(385,380,cs),
(379,377,o),
(385,380,o),
(379,377,c)
);
}
);
width = 600;
},
{
associatedMasterId = m01;
backgroundImage = {
imagePath = "LETTRE/e copie.png";
locked = 1;
pos = (25,-35);
scale = (3.5654,3.5654);
};
layerId = "83881356-DC3E-40B7-BD49-D5DEE8CCDD6D";
name = "10 mars 25 à 18:27";
shapes = (
{
closed = 0;
nodes = (
(393,224,l)
);
},
{
closed = 1;
nodes = (
(342,378,o),
(342,378,o),
(351,382,cs),
(354,383,o),
(349,391,o),
(349,391,c),
(321,434,o),
(280,456,o),
(238,456,cs),
(151,456,o),
(115,382,o),
(115,276,cs),
(115,130,o),
(187,42,o),
(274,42,cs),
(328,42,o),
(361,71,o),
(378,119,c),
(385,144,o),
(405,150,o),
(422,144,cs),
(442,137,o),
(447,107,o),
(438,91,c),
(402,26,o),
(342,-18,o),
(262,-18,cs),
(135,-18,o),
(32,103,o),
(32,247,cs),
(32,387,o),
(115,516,o),
(250,516,cs),
(338,516,o),
(417,454,o),
(454,363,cs),
(454,363,o),
(457,355,o),
(454,353,cs),
(448,350,o),
(454,353,o),
(448,350,c),
(104,228,l),
(106,295,l),
(333,374,l)
);
}
);
width = 504;
},
{
associatedMasterId = m01;
backgroundImage = {
imagePath = "LETTRE/e copie.png";
locked = 1;
pos = (25,-35);
scale = (3.5654,3.5654);
};
layerId = "4831CA10-0663-4693-B64E-2CE0D6E7038D";
name = "11 mars 25 à 15:25";
shapes = (
{
closed = 1;
nodes = (
(402,26,o),
(342,-18,o),
(262,-18,cs),
(135,-18,o),
(32,103,o),
(32,247,cs),
(32,387,o),
(115,516,o),
(250,516,cs),
(338,516,o),
(417,454,o),
(454,363,cs),
(454,363,o),
(457,355,o),
(454,353,cs),
(448,350,o),
(454,353,o),
(448,350,c),
(104,228,l),
(106,295,l),
(333,374,l),
(342,378,o),
(342,378,o),
(351,382,cs),
(354,383,o),
(349,391,o),
(349,391,c),
(321,434,o),
(280,456,o),
(238,456,cs),
(151,456,o),
(115,382,o),
(115,276,cs),
(115,130,o),
(187,42,o),
(274,42,cs),
(328,42,o),
(361,71,o),
(378,119,c),
(438,91,l)
);
}
);
width = 504;
}
);
unicode = 101;
},
{
glyphname = f;
lastChange = "2025-03-11 14:46:11 +0000";
layers = (
{
layerId = m01;
shapes = (
{
closed = 1;
nodes = (
(198,776,o),
(134,698,o),
(134,592,c),
(134,480,l),
(214,480,l),
(214,500,o),
(214,571,o),
(214,592,c),
(214,670,o),
(254,711,o),
(274,708,c),
(290,707,o),
(305,703,o),
(319,696,c),
(347,682,o),
(368,692,o),
(377,712,cs),
(389,735,o),
(367,764,o),
(347,770,cs),
(327,776,o),
(294,776,o),
(274,776,cs)
);
},
{
closed = 1;
nodes = (
(128,445,l),
(128,68,l),
(66,68,ls),
(57,68,o),
(53,64,o),
(53,55,cs),
(53,13,ls),
(53,4,o),
(57,0,o),
(66,0,cs),
(270,0,ls),
(279,0,o),
(283,4,o),
(283,13,cs),
(283,55,ls),
(283,64,o),
(279,68,o),
(270,68,cs),
(208,68,l),
(208,445,l)
);
},
{
closed = 1;
nodes = (
(57,500,o),
(53,496,o),
(53,487,cs),
(53,445,ls),
(53,436,o),
(57,432,o),
(66,432,cs),
(284,432,ls),
(293,432,o),
(297,436,o),
(297,445,cs),
(297,487,ls),
(297,496,o),
(293,500,o),
(284,500,cs),
(66,500,ls)
);
}
);
width = 342;
},
{
associatedMasterId = m01;
backgroundImage = {
imagePath = "LETTRE/f.png";
pos = (-359,0);
};
layerId = "A70FD7EF-3BEC-45F9-86C7-BDEB2BD82E3B";
name = "10 mars 25 à 14:22";
shapes = (
{
closed = 1;
nodes = (
(408,624,o),
(493,650,o),
(507,683,cs),
(519,711,o),
(515,776,o),
(402,776,cs),
(326,776,o),
(262,698,o),
(262,592,c),
(262,480,l),
(342,480,l),
(342,500,o),
(342,571,o),
(342,592,c),
(342,670,o),
(382,711,o),
(402,708,c)
);
},
{
closed = 1;
nodes = (
(256,445,l),
(256,68,l),
(194,68,ls),
(185,68,o),
(181,64,o),
(181,55,cs),
(181,13,ls),
(181,4,o),
(185,0,o),
(194,0,cs),
(398,0,ls),
(407,0,o),
(411,4,o),
(411,13,cs),
(411,55,ls),
(411,64,o),
(407,68,o),
(398,68,cs),
(336,68,l),
(336,445,l)
);
},
{
closed = 1;
nodes = (
(185,500,o),
(181,496,o),
(181,487,cs),
(181,445,ls),
(181,436,o),
(185,432,o),
(194,432,cs),
(398,432,ls),
(407,432,o),
(411,436,o),
(411,445,cs),
(411,487,ls),
(411,496,o),
(407,500,o),
(398,500,cs),
(194,500,ls)
);
}
);
width = 600;
},
{
associatedMasterId = m01;
layerId = "D9E68B65-D558-47D0-8F37-11794162A237";
name = "11 mars 25 à 15:39";
shapes = (
{
closed = 1;
nodes = (
(280,624,o),
(365,650,o),
(379,683,cs),
(391,711,o),
(387,776,o),
(274,776,cs),
(198,776,o),
(134,698,o),
(134,592,c),
(134,480,l),
(214,480,l),
(214,500,o),
(214,571,o),
(214,592,c),
(214,670,o),
(254,711,o),
(274,708,c)
);
},
{
closed = 1;
nodes = (
(128,445,l),
(128,68,l),
(66,68,ls),
(57,68,o),
(53,64,o),
(53,55,cs),
(53,13,ls),
(53,4,o),
(57,0,o),
(66,0,cs),
(270,0,ls),
(279,0,o),
(283,4,o),
(283,13,cs),
(283,55,ls),
(283,64,o),
(279,68,o),
(270,68,cs),
(208,68,l),
(208,445,l)
);
},
{
closed = 1;
nodes = (
(57,500,o),
(53,496,o),
(53,487,cs),
(53,445,ls),
(53,436,o),
(57,432,o),
(66,432,cs),
(284,432,ls),
(293,432,o),
(297,436,o),
(297,445,cs),
(297,487,ls),
(297,496,o),
(293,500,o),
(284,500,cs),
(66,500,ls)
);
}
);
width = 319;
}
);
unicode = 102;
},
{
glyphname = g;
lastChange = "2025-03-10 17:19:16 +0000";
layers = (
{
backgroundImage = {
imagePath = "LETTRE/g copie.png";
locked = 1;
pos = (-29,-283);
scale = (5.9302,5.9302);
};
layerId = m01;
shapes = (
{
closed = 1;
nodes = (
(381,159,o),
(448,243,o),
(448,337,cs),
(448,433,o),
(366,516,o),
(263,516,cs),
(156,516,o),
(86,429,o),
(86,335,cs),
(86,239,o),
(172,159,o),
(273,159,cs)
);
},
{
closed = 1;
nodes = (
(220,214,o),
(169,267,o),
(169,353,cs),
(169,416,o),
(194,461,o),
(255,461,cs),
(314,461,o),
(365,408,o),
(365,322,cs),
(365,259,o),
(344,214,o),
(280,214,cs)
);
},
{
closed = 1;
nodes = (
(425,382,l),
(451,419,o),
(468,423,o),
(528,424,c),
(528,500,l),
(477,500,o),
(441,494,o),
(400,433,c)
);
},
{
closed = 1;
nodes = (
(148,156,o),
(72,105,o),
(72,71,cs),
(72,40,o),
(111,7,o),
(230,7,cs),
(349,7,o),
(400,9,o),
(434,-28,cs),
(468,-65,o),
(397,-151,o),
(276,-149,cs),
(155,-147,o),
(112,-72,o),
(234,14,c),
(179,16,l),
(148,0,o),
(76,-44,o),
(76,-111,cs),
(76,-191,o),
(195,-216,o),
(250,-216,cs),
(402,-216,o),
(519,-106,o),
(519,-21,cs),
(519,66,o),
(398,74,o),
(345,76,cs),
(287,78,o),
(122,73,o),
(182,127,cs),
(240,180,l),
(198,193,l)
);
}
);
width = 564;
},
{
associatedMasterId = m01;
backgroundImage = {
imagePath = "LETTRE/g copie.png";
locked = 1;
pos = (-29,-283);
scale = (5.9302,5.9302);
};
layerId = "26B3BC91-E49E-44C8-800F-2771427122AC";
name = "10 mars 25 à 16:44";
shapes = (
{
closed = 1;
nodes = (
(381,159,o),
(444,243,o),
(444,337,cs),
(444,433,o),
(366,516,o),
(263,516,cs),
(156,516,o),
(90,429,o),
(90,335,cs),
(90,239,o),
(172,159,o),
(273,159,cs)
);
},
{
closed = 1;
nodes = (
(214,199,o),
(156,258,o),
(156,355,cs),
(156,426,o),
(185,476,o),
(254,476,cs),
(320,476,o),
(378,417,o),
(378,320,cs),
(378,249,o),
(353,199,o),
(282,199,cs)
);
},
{
closed = 1;
nodes = (
(425,382,l),
(455,396,o),
(455,422,o),
(515,423,c),
(527,505,l),
(490,500,o),
(462,505,o),
(400,433,c)
);
},
{
closed = 1;
nodes = (
(149,148,o),
(72,105,o),
(72,71,cs),
(72,40,o),
(111,7,o),
(230,7,cs),
(349,7,o),
(400,9,o),
(434,-28,cs),
(468,-65,o),
(397,-151,o),
(276,-149,cs),
(155,-147,o),
(112,-72,o),
(234,14,c),
(190,16,l),
(174,-6,o),
(76,-44,o),
(76,-124,cs),
(76,-191,o),
(195,-216,o),
(250,-216,cs),
(402,-216,o),
(519,-106,o),
(519,-21,cs),
(519,66,o),
(398,70,o),
(345,72,cs),
(287,74,o),
(146,71,o),
(182,127,c),
(234,182,l),
(192,197,l)
);
}
);
width = 600;
},
{
associatedMasterId = m01;
backgroundImage = {
imagePath = "LETTRE/g copie.png";
locked = 1;
pos = (-29,-283);
scale = (5.9302,5.9302);
};
layerId = "1A424E07-47B1-4ED6-8FEE-2D5417219C35";
name = "10 mars 25 à 16:45";
shapes = (
{
closed = 1;
nodes = (
(381,159,o),
(444,243,o),
(444,337,cs),
(444,433,o),
(366,516,o),
(263,516,cs),
(156,516,o),
(90,429,o),
(90,335,cs),
(90,239,o),
(172,159,o),
(273,159,cs)
);
},
{
closed = 1;
nodes = (
(220,214,o),
(168,267,o),
(168,353,cs),
(168,416,o),
(194,461,o),
(255,461,cs),
(314,461,o),
(366,408,o),
(366,322,cs),
(366,259,o),
(344,214,o),
(280,214,cs)
);
},
{
closed = 1;
nodes = (
(425,382,l),
(455,396,o),
(455,422,o),
(515,423,c),
(527,505,l),
(490,500,o),
(462,505,o),
(400,433,c)
);
},
{
closed = 1;
nodes = (
(149,148,o),
(72,105,o),
(72,71,cs),
(72,40,o),
(111,7,o),
(230,7,cs),
(349,7,o),
(400,9,o),
(434,-28,cs),
(468,-65,o),
(397,-151,o),
(276,-149,cs),
(155,-147,o),
(112,-72,o),
(234,14,c),
(190,16,l),
(174,-6,o),
(76,-44,o),
(76,-124,cs),
(76,-191,o),
(195,-216,o),
(250,-216,cs),
(402,-216,o),
(519,-106,o),
(519,-21,cs),
(519,66,o),
(398,70,o),
(345,72,cs),
(287,74,o),
(146,71,o),
(182,127,c),
(234,182,l),
(192,197,l)
);
}
);
width = 600;
}
);
unicode = 103;
},
{
glyphname = h;
lastChange = "2025-03-10 10:33:06 +0000";
layers = (
{
layerId = m01;
shapes = (
{
closed = 1;
nodes = (
(506,336,ls),
(506,447,o),
(466,516,o),
(358,516,cs),
(286,516,o),
(203,455,o),
(187,351,c),
(187,293,l),
(220,411,o),
(276,448,o),
(341,448,cs),
(403,448,o),
(426,400,o),
(426,337,cs),
(426,68,l),
(364,68,ls),
(355,68,o),
(351,64,o),
(351,55,cs),
(351,13,ls),
(351,4,o),
(355,0,o),
(364,0,cs),
(568,0,ls),
(577,0,o),
(581,4,o),
(581,13,cs),
(581,55,ls),
(581,64,o),
(577,68,o),
(568,68,cs),
(506,68,l)
);
},
{
closed = 1;
nodes = (
(197,765,o),
(193,767,o),
(187,767,cs),
(181,767,o),
(177,765,o),
(170,760,cs),
(37,659,l),
(37,637,l),
(104,637,ls),
(113,637,o),
(117,633,o),
(117,624,cs),
(117,68,l),
(55,68,ls),
(46,68,o),
(42,64,o),
(42,55,cs),
(42,13,ls),
(42,4,o),
(46,0,o),
(55,0,cs),
(259,0,ls),
(268,0,o),
(272,4,o),
(272,13,cs),
(272,55,ls),
(272,64,o),
(268,68,o),
(259,68,cs),
(197,68,l),
(197,760,ls)
);
}
);
width = 600;
},
{
associatedMasterId = m01;
layerId = "7D135B33-BA8B-4BBE-A905-7BD369EB36EE";
name = "10 mars 25 à 11:32";
shapes = (
{
closed = 1;
nodes = (
(515,505,o),
(459,516,o),
(393,516,cs),
(347,516,o),
(306,497,o),
(216,411,c),
(216,343,l),
(279,411,o),
(332,448,o),
(376,448,cs),
(427,448,o),
(431,409,o),
(431,376,cs),
(431,82,l),
(431,68,o),
(421,68,o),
(418,68,c),
(364,68,l),
(357,68,o),
(356,67,o),
(356,60,c),
(356,8,l),
(356,1,o),
(357,0,o),
(364,0,c),
(578,0,ls),
(585,0,o),
(586,1,o),
(586,8,c),
(586,60,l),
(586,67,o),
(585,68,o),
(578,68,c),
(524,68,l),
(521,68,o),
(511,68,o),
(511,82,cs),
(511,376,ls)
);
},
{
closed = 1;
nodes = (
(213,700,o),
(216,700,o),
(216,654,cs),
(216,82,ls),
(216,68,o),
(226,68,o),
(229,68,c),
(283,68,l),
(290,68,o),
(291,67,o),
(291,60,c),
(291,8,l),
(291,1,o),
(290,0,o),
(283,0,c),
(69,0,ls),
(62,0,o),
(61,1,o),
(61,8,c),
(61,60,l),
(61,67,o),
(62,68,o),
(69,68,c),
(123,68,l),
(126,68,o),
(136,68,o),
(136,82,cs),
(136,542,ls),
(136,556,o),
(126,556,o),
(123,556,c),
(69,556,l),
(62,556,o),
(61,557,o),
(61,563,cs),
(61,590,l),
(178,666,o),
(149,700,o),
(175,700,c)
);
}
);
width = 600;
}
);
unicode = 104;
},
{
glyphname = i;
lastChange = "2025-03-10 17:22:41 +0000";
layers = (
{
layerId = m01;
shapes = (
{
closed = 1;
nodes = (
(162,634,o),
(201,655,o),
(212,688,cs),
(225,722,o),
(208,760,o),
(177,772,cs),
(145,784,o),
(107,765,o),
(95,730,cs),
(82,696,o),
(98,657,o),
(131,645,cs)
);
},
{
closed = 1;
nodes = (
(205,505,o),
(201,507,o),
(195,507,cs),
(189,507,o),
(185,505,o),
(178,500,cs),
(45,399,l),
(45,377,l),
(112,377,ls),
(121,377,o),
(125,373,o),
(125,364,cs),
(125,68,l),
(63,68,ls),
(54,68,o),
(50,64,o),
(50,55,cs),
(50,13,ls),
(50,4,o),
(54,0,o),
(63,0,cs),
(267,0,ls),
(276,0,o),
(280,4,o),
(280,13,cs),
(280,55,ls),
(280,64,o),
(276,68,o),
(267,68,cs),
(205,68,l),
(205,500,ls)
);
}
);
width = 325;
}
);
unicode = 105;
},
{
glyphname = j;
lastChange = "2025-03-11 14:52:16 +0000";
layers = (
{
layerId = m01;
shapes = (
{
closed = 1;
nodes = (
(237,634,o),
(276,655,o),
(287,688,cs),
(300,722,o),
(283,760,o),
(252,772,cs),
(220,784,o),
(182,765,o),
(170,730,cs),
(157,696,o),
(173,657,o),
(206,645,cs)
);
},
{
closed = 1;
nodes = (
(191,-110,o),
(151,-151,o),
(131,-148,c),
(115,-147,o),
(100,-143,o),
(86,-136,c),
(58,-122,o),
(37,-132,o),
(28,-152,cs),
(16,-175,o),
(38,-204,o),
(58,-210,cs),
(78,-216,o),
(111,-216,o),
(131,-216,cs),
(207,-216,o),
(271,-138,o),
(271,-32,cs),
(271,500,ls),
(271,505,o),
(267,507,o),
(261,507,cs),
(255,507,o),
(251,505,o),
(244,500,cs),
(111,399,l),
(111,377,l),
(178,377,ls),
(187,377,o),
(191,373,o),
(191,364,cs),
(191,-32,ls)
);
}
);
width = 308;
},
{
associatedMasterId = m01;
backgroundImage = {
imagePath = "/Users/theoverzeletti/Desktop/Capture d’écran 2025-02-10 à 15.49.46.png";
locked = 1;
pos = (54,-227);
scale = (4.7368,4.7368);
};
layerId = "84E53E68-31B0-4E4D-9F80-5A3F2E5BABD7";
name = "10 févr. 25 à 15:54";
shapes = (
{
closed = 0;
nodes = (
(266,5,l),
(266,565,ls),
(266,572,o),
(266,577,o),
(266,577,c),
(185,577,ls),
(178,577,o),
(173,582,o),
(173,589,c),
(173,611,l),
(173,618,o),
(177,619,o),
(185,623,c),
(213,635,o),
(225,643,o),
(250,663,cs),
(270,679,o),
(275,691,o),
(286,709,c),
(290,717,o),
(291,721,o),
(298,721,c),
(334,721,l),
(341,721,o),
(346,716,o),
(346,709,cs),
(346,5,l)
);
},
{
closed = 0;
nodes = (
(346,-16,l),
(346,-122,o),
(282,-200,o),
(206,-200,cs),
(93,-200,o),
(89,-135,o),
(101,-107,cs),
(115,-74,o),
(200,-51,o),
(206,-135,c),
(226,-138,o),
(266,-94,o),
(266,-16,c)
);
}
);
width = 600;
},
{
associatedMasterId = m01;
layerId = "F8E18834-A2E5-4EB6-BBC8-E22F7906DEC9";
name = "11 mars 25 à 15:51";
shapes = (
{
closed = 1;
nodes = (
(237,634,o),
(276,655,o),
(287,688,cs),
(300,722,o),
(283,760,o),
(252,772,cs),
(220,784,o),
(182,765,o),
(170,730,cs),
(157,696,o),
(173,657,o),
(206,645,cs)
);
},
{
closed = 1;
nodes = (
(271,505,o),
(267,507,o),
(261,507,cs),
(255,507,o),
(251,505,o),
(244,500,cs),
(111,399,l),
(111,377,l),
(178,377,ls),
(187,377,o),
(191,373,o),
(191,364,cs),
(191,-32,ls),
(191,-110,o),
(151,-154,o),
(131,-151,c),
(125,-67,o),
(40,-90,o),
(26,-123,cs),
(14,-151,o),
(18,-216,o),
(131,-216,cs),
(226,-216,o),
(271,-138,o),
(271,-32,cs),
(271,500,ls)
);
}
);
width = 308;
}
);
unicode = 106;
},
{
glyphname = k;
lastChange = "2025-03-10 15:58:38 +0000";
layers = (
{
backgroundImage = {
imagePath = "LETTRE/k.png";
locked = 1;
pos = (31,-53);
scale = (2.7026,2.7026);
};
layerId = m01;
shapes = (
{
closed = 1;
nodes = (
(247,765,o),
(243,767,o),
(237,767,cs),
(231,767,o),
(227,765,o),
(220,760,cs),
(87,659,l),
(87,637,l),
(154,637,ls),
(163,637,o),
(167,633,o),
(167,624,cs),
(167,68,l),
(105,68,ls),
(96,68,o),
(92,64,o),
(92,55,cs),
(92,13,ls),
(92,4,o),
(96,0,o),
(105,0,cs),
(309,0,ls),
(318,0,o),
(322,4,o),
(322,13,cs),
(322,55,ls),
(322,64,o),
(318,68,o),
(309,68,cs),
(247,68,l),
(247,760,ls)
);
},
{
closed = 1;
nodes = (
(365,500,ls),
(356,500,o),
(352,496,o),
(352,487,cs),
(352,445,ls),
(352,436,o),
(356,432,o),
(365,432,cs),
(569,432,ls),
(578,432,o),
(582,436,o),
(582,445,cs),
(582,487,ls),
(582,496,o),
(578,500,o),
(569,500,cs),
(507,500,l)
);
},
{
closed = 1;
nodes = (
(375,68,ls),
(366,68,o),
(362,64,o),
(362,55,cs),
(362,13,ls),
(362,4,o),
(366,0,o),
(375,0,cs),
(579,0,ls),
(588,0,o),
(592,4,o),
(592,13,cs),
(592,55,ls),
(592,64,o),
(588,68,o),
(579,68,cs),
(517,68,l)
);
},
{
closed = 1;
nodes = (
(238,154,l),
(525,440,l),
(425,440,l),
(238,253,l)
);
},
{
closed = 1;
nodes = (
(541,55,l),
(359,309,l),
(301,253,l),
(442,55,l)
);
}
);
width = 600;
}
);
unicode = 107;
},
{
glyphname = l;
lastChange = "2025-03-11 14:48:59 +0000";
layers = (
{
backgroundImage = {
imagePath = "/Users/theoverzeletti/Desktop/Capture d’écran 2025-02-10 à 13.39.55.png";
locked = 1;
pos = (20,-36);
scale = (1.7929,1.7929);
};
layerId = m01;
shapes = (
{
closed = 1;
nodes = (
(189,765,o),
(185,767,o),
(179,767,cs),
(173,767,o),
(169,765,o),
(162,760,cs),
(29,659,l),
(29,637,l),
(96,637,ls),
(105,637,o),
(109,633,o),
(109,624,cs),
(109,68,l),
(47,68,ls),
(38,68,o),
(34,64,o),
(34,55,cs),
(34,13,ls),
(34,4,o),
(38,0,o),
(47,0,cs),
(251,0,ls),
(260,0,o),
(264,4,o),
(264,13,cs),
(264,55,ls),
(264,64,o),
(260,68,o),
(251,68,cs),
(189,68,l),
(189,760,ls)
);
}
);
width = 293;
}
);
unicode = 108;
},
{
glyphname = m;
lastChange = "2025-03-11 15:09:18 +0000";
layers = (
{
background = {
shapes = (
{
closed = 1;
nodes = (
(278,70,l),
(285,70,o),
(290,65,o),
(290,58,c),
(290,12,l),
(290,5,o),
(285,0,o),
(278,0,c),
(72,0,ls),
(65,0,o),
(60,5,o),
(60,12,c),
(60,58,l),
(60,65,o),
(65,70,o),
(72,70,c)
);
},
{
closed = 1;
nodes = (
(580,70,l),
(587,70,o),
(592,65,o),
(592,58,c),
(592,12,l),
(592,5,o),
(587,0,o),
(580,0,c),
(374,0,ls),
(367,0,o),
(362,5,o),
(362,12,c),
(362,58,l),
(362,65,o),
(367,70,o),
(374,70,c)
);
},
{
closed = 1;
nodes = (
(241,386,o),
(280,438,o),
(357,438,c),
(410,438,o),
(437,399,o),
(437,312,c),
(437,70,l),
(517,70,l),
(517,372,l),
(517,436,o),
(462,516,o),
(380,516,cs),
(283,516,o),
(242,444,o),
(215,413,c),
(215,326,l)
);
},
{
closed = 1;
nodes = (
(135,50,l),
(135,360,ls),
(135,367,o),
(135,372,o),
(135,372,c),
(54,372,ls),
(47,372,o),
(42,377,o),
(42,384,c),
(42,406,l),
(42,413,o),
(46,414,o),
(54,418,c),
(82,430,o),
(94,438,o),
(119,458,cs),
(139,474,o),
(144,486,o),
(155,504,c),
(159,512,o),
(160,516,o),
(167,516,c),
(203,516,l),
(210,516,o),
(215,511,o),
(215,504,cs),
(215,50,l)
);
},
{
closed = 1;
nodes = (
(875,70,l),
(882,70,o),
(887,65,o),
(887,58,c),
(887,12,l),
(887,5,o),
(882,0,o),
(875,0,c),
(669,0,ls),
(662,0,o),
(657,5,o),
(657,12,c),
(657,58,l),
(657,65,o),
(662,70,o),
(669,70,c)
);
},
{
closed = 1;
nodes = (
(536,386,o),
(575,438,o),
(652,438,c),
(705,438,o),
(732,399,o),
(732,312,c),
(732,70,l),
(812,70,l),
(812,372,l),
(812,436,o),
(757,516,o),
(675,516,cs),
(578,516,o),
(537,444,o),
(510,413,c),
(510,326,l)
);
}
);
};
layerId = m01;
shapes = (
{
closed = 1;
nodes = (
(505,336,ls),
(505,447,o),
(465,516,o),
(357,516,cs),
(285,516,o),
(202,455,o),
(186,351,c),
(186,293,l),
(219,411,o),
(275,448,o),
(340,448,cs),
(402,448,o),
(425,400,o),
(425,337,cs),
(425,68,l),
(363,68,ls),
(354,68,o),
(350,64,o),
(350,55,cs),
(350,13,ls),
(350,4,o),
(354,0,o),
(363,0,cs),
(567,0,ls),
(576,0,o),
(580,4,o),
(580,13,cs),
(580,55,ls),
(580,64,o),
(576,68,o),
(567,68,cs),
(505,68,l)
);
},
{
closed = 1;
nodes = (
(196,505,o),
(192,507,o),
(186,507,cs),
(180,507,o),
(176,505,o),
(169,500,cs),
(36,399,l),
(36,377,l),
(103,377,ls),
(112,377,o),
(116,373,o),
(116,364,cs),
(116,68,l),
(54,68,ls),
(45,68,o),
(41,64,o),
(41,55,cs),
(41,13,ls),
(41,4,o),
(45,0,o),
(54,0,cs),
(258,0,ls),
(267,0,o),
(271,4,o),
(271,13,cs),
(271,55,ls),
(271,64,o),
(267,68,o),
(258,68,cs),
(196,68,l),
(196,500,ls)
);
},
{
closed = 1;
nodes = (
(814,336,ls),
(814,447,o),
(774,516,o),
(666,516,cs),
(594,516,o),
(511,455,o),
(495,351,c),
(495,293,l),
(528,411,o),
(584,448,o),
(649,448,cs),
(711,448,o),
(734,400,o),
(734,337,cs),
(734,68,l),
(672,68,ls),
(663,68,o),
(659,64,o),
(659,55,cs),
(659,13,ls),
(659,4,o),
(663,0,o),
(672,0,cs),
(876,0,ls),
(885,0,o),
(889,4,o),
(889,13,cs),
(889,55,ls),
(889,64,o),
(885,68,o),
(876,68,cs),
(814,68,l)
);
}
);
width = 923;
},
{
associatedMasterId = m01;
layerId = "0CCE3A0F-268A-4B34-8BDE-979F967C481D";
name = "10 mars 25 à 11:22";
shapes = (
{
closed = 1;
nodes = (
(279,70,l),
(286,70,o),
(291,65,o),
(291,58,c),
(291,12,l),
(291,5,o),
(286,0,o),
(279,0,c),
(73,0,ls),
(66,0,o),
(61,5,o),
(61,12,c),
(61,58,l),
(61,65,o),
(66,70,o),
(73,70,c)
);
},
{
closed = 1;
nodes = (
(581,70,l),
(588,70,o),
(593,65,o),
(593,58,c),
(593,12,l),
(593,5,o),
(588,0,o),
(581,0,c),
(375,0,ls),
(368,0,o),
(363,5,o),
(363,12,c),
(363,58,l),
(363,65,o),
(368,70,o),
(375,70,c)
);
},
{
closed = 1;
nodes = (
(242,386,o),
(281,438,o),
(358,438,c),
(411,438,o),
(438,399,o),
(438,312,c),
(438,70,l),
(518,70,l),
(518,372,l),
(518,436,o),
(463,516,o),
(381,516,cs),
(284,516,o),
(243,444,o),
(216,413,c),
(216,326,l)
);
},
{
closed = 1;
nodes = (
(136,50,l),
(136,360,ls),
(136,367,o),
(136,372,o),
(136,372,c),
(55,372,ls),
(48,372,o),
(43,377,o),
(43,384,c),
(43,406,l),
(43,413,o),
(47,414,o),
(55,418,c),
(83,430,o),
(95,438,o),
(120,458,cs),
(140,474,o),
(145,486,o),
(156,504,c),
(160,512,o),
(161,516,o),
(168,516,c),
(204,516,l),
(211,516,o),
(216,511,o),
(216,504,cs),
(216,50,l)
);
},
{
closed = 1;
nodes = (
(876,70,l),
(883,70,o),
(888,65,o),
(888,58,c),
(888,12,l),
(888,5,o),
(883,0,o),
(876,0,c),
(670,0,ls),
(663,0,o),
(658,5,o),
(658,12,c),
(658,58,l),
(658,65,o),
(663,70,o),
(670,70,c)
);
},
{
closed = 1;
nodes = (
(537,386,o),
(576,438,o),
(653,438,c),
(706,438,o),
(733,399,o),
(733,312,c),
(733,70,l),
(813,70,l),
(813,372,l),
(813,436,o),
(758,516,o),
(676,516,cs),
(579,516,o),
(538,444,o),
(511,413,c),
(511,326,l)
);
}
);
width = 961;
},
{
associatedMasterId = m01;
background = {
shapes = (
{
closed = 1;
nodes = (
(279,70,l),
(286,70,o),
(291,65,o),
(291,58,c),
(291,12,l),
(291,5,o),
(286,0,o),
(279,0,c),
(73,0,ls),
(66,0,o),
(61,5,o),
(61,12,c),
(61,58,l),
(61,65,o),
(66,70,o),
(73,70,c)
);
},
{
closed = 1;
nodes = (
(581,70,l),
(588,70,o),
(593,65,o),
(593,58,c),
(593,12,l),
(593,5,o),
(588,0,o),
(581,0,c),
(375,0,ls),
(368,0,o),
(363,5,o),
(363,12,c),
(363,58,l),
(363,65,o),
(368,70,o),
(375,70,c)
);
},
{
closed = 1;
nodes = (
(242,386,o),
(281,438,o),
(358,438,c),
(411,438,o),
(438,399,o),
(438,312,c),
(438,70,l),
(518,70,l),
(518,372,l),
(518,436,o),
(463,516,o),
(381,516,cs),
(284,516,o),
(243,444,o),
(216,413,c),
(216,326,l)
);
},
{
closed = 1;
nodes = (
(136,50,l),
(136,360,ls),
(136,367,o),
(136,372,o),
(136,372,c),
(55,372,ls),
(48,372,o),
(43,377,o),
(43,384,c),
(43,406,l),
(43,413,o),
(47,414,o),
(55,418,c),
(83,430,o),
(95,438,o),
(120,458,cs),
(140,474,o),
(145,486,o),
(156,504,c),
(160,512,o),
(161,516,o),
(168,516,c),
(204,516,l),
(211,516,o),
(216,511,o),
(216,504,cs),
(216,50,l)
);
},
{
closed = 1;
nodes = (
(876,70,l),
(883,70,o),
(888,65,o),
(888,58,c),
(888,12,l),
(888,5,o),
(883,0,o),
(876,0,c),
(670,0,ls),
(663,0,o),
(658,5,o),
(658,12,c),
(658,58,l),
(658,65,o),
(663,70,o),
(670,70,c)
);
},
{
closed = 1;
nodes = (
(537,386,o),
(576,438,o),
(653,438,c),
(706,438,o),
(733,399,o),
(733,312,c),
(733,70,l),
(813,70,l),
(813,372,l),
(813,436,o),
(758,516,o),
(676,516,cs),
(579,516,o),
(538,444,o),
(511,413,c),
(511,326,l)
);
}
);
};
layerId = "69F7AAEC-76E0-4E4F-9DF7-5895282933E1";
name = "10 mars 25 à 11:31";
shapes = (
{
closed = 1;
nodes = (
(492,336,ls),
(492,447,o),
(462,516,o),
(354,516,cs),
(282,516,o),
(203,445,o),
(177,351,c),
(177,293,l),
(220,401,o),
(272,448,o),
(337,448,cs),
(399,448,o),
(412,400,o),
(412,337,cs),
(412,68,l),
(350,68,ls),
(341,68,o),
(337,64,o),
(337,55,cs),
(337,13,ls),
(337,4,o),
(341,0,o),
(350,0,cs),
(554,0,ls),
(563,0,o),
(567,4,o),
(567,13,cs),
(567,55,ls),
(567,64,o),
(563,68,o),
(554,68,cs),
(492,68,l)
);
},
{
closed = 1;
nodes = (
(197,505,o),
(193,507,o),
(187,507,cs),
(181,507,o),
(177,505,o),
(170,500,cs),
(37,399,l),
(37,377,l),
(104,377,ls),
(113,377,o),
(117,373,o),
(117,364,cs),
(117,68,l),
(55,68,ls),
(46,68,o),
(42,64,o),
(42,55,cs),
(42,13,ls),
(42,4,o),
(46,0,o),
(55,0,cs),
(259,0,ls),
(268,0,o),
(272,4,o),
(272,13,cs),
(272,55,ls),
(272,64,o),
(268,68,o),
(259,68,cs),
(197,68,l),
(197,500,ls)
);
},
{
closed = 1;
nodes = (
(787,336,ls),
(787,447,o),
(757,516,o),
(649,516,cs),
(577,516,o),
(498,445,o),
(472,351,c),
(472,293,l),
(515,401,o),
(567,448,o),
(632,448,cs),
(694,448,o),
(707,400,o),
(707,337,cs),
(707,68,l),
(645,68,ls),
(636,68,o),
(632,64,o),
(632,55,cs),
(632,13,ls),
(632,4,o),
(636,0,o),
(645,0,cs),
(849,0,ls),
(858,0,o),
(862,4,o),
(862,13,cs),
(862,55,ls),
(862,64,o),
(858,68,o),
(849,68,cs),
(787,68,l)
);
}
);
width = 910;
}
);
unicode = 109;
},
{
glyphname = n;
lastChange = "2025-03-11 15:22:10 +0000";
layers = (
{
backgroundImage = {
imagePath = "/Users/theoverzeletti/Desktop/Capture d’écran 2025-02-10 à 09.34.51.jpeg";
locked = 1;
pos = (1,-19);
scale = (1.1227,1.1227);
};
layerId = m01;
shapes = (
{
closed = 1;
nodes = (
(505,336,ls),
(505,447,o),
(465,516,o),
(357,516,cs),
(285,516,o),
(202,455,o),
(186,351,c),
(186,293,l),
(219,411,o),
(275,448,o),
(340,448,cs),
(402,448,o),
(425,400,o),
(425,337,cs),
(425,68,l),
(363,68,ls),
(354,68,o),
(350,64,o),
(350,55,cs),
(350,13,ls),
(350,4,o),
(354,0,o),
(363,0,cs),
(567,0,ls),
(576,0,o),
(580,4,o),
(580,13,cs),
(580,55,ls),
(580,64,o),
(576,68,o),
(567,68,cs),
(505,68,l)
);
},
{
closed = 1;
nodes = (
(196,505,o),
(192,507,o),
(186,507,cs),
(180,507,o),
(176,505,o),
(169,500,cs),
(36,399,l),
(36,377,l),
(103,377,ls),
(112,377,o),
(116,373,o),
(116,364,cs),
(116,68,l),
(54,68,ls),
(45,68,o),
(41,64,o),
(41,55,cs),
(41,13,ls),
(41,4,o),
(45,0,o),
(54,0,cs),
(258,0,ls),
(267,0,o),
(271,4,o),
(271,13,cs),
(271,55,ls),
(271,64,o),
(267,68,o),
(258,68,cs),
(196,68,l),
(196,500,ls)
);
}
);
width = 614;
},
{
associatedMasterId = m01;
backgroundImage = {
imagePath = "/Users/theoverzeletti/Desktop/Capture d’écran 2025-02-10 à 09.34.51.jpeg";
locked = 1;
pos = (21,-19);
scale = (1.1227,1.1227);
};
layerId = "15571937-FC4A-48C3-8CDE-94B1DE7483B7";
name = "10 févr. 25 à 10:47";
shapes = (
{
closed = 1;
nodes = (
(521,80,l),
(603,80,l),
(603,0,l),
(360,0,l),
(360,80,l),
(431,80,l),
(431,371,ls),
(431,404,o),
(385,422,o),
(348,422,cs),
(304,422,o),
(245,347,o),
(193,309,c),
(197,402,l),
(262,441,o),
(348,518,o),
(393,518,cs),
(458,518,o),
(521,436,o),
(521,371,cs)
);
},
{
closed = 1;
nodes = (
(120,68,l),
(124,68,o),
(123,64,o),
(123,57,c),
(126,57,l),
(126,72,l),
(126,371,l),
(40,373,l),
(44,411,l),
(149,499,l),
(171,501,o),
(216,508,o),
(216,504,cs),
(216,68,l),
(294,68,l),
(294,0,l),
(51,0,l),
(51,68,l)
);
}
);
width = 643;
},
{
associatedMasterId = m01;
backgroundImage = {
imagePath = "/Users/theoverzeletti/Desktop/Capture d’écran 2025-02-10 à 09.34.51.jpeg";
locked = 1;
pos = (21,-19);
scale = (1.1227,1.1227);
};
layerId = "D06D3C14-ABC9-4224-B8EF-B477798471DB";
name = "10 févr. 25 à 10:49";
shapes = (
{
closed = 1;
nodes = (
(521,80,l),
(603,80,l),
(603,0,l),
(360,0,l),
(360,80,l),
(431,80,l),
(431,371,ls),
(431,404,o),
(385,422,o),
(348,422,cs),
(304,422,o),
(245,347,o),
(193,309,c),
(197,402,l),
(262,441,o),
(348,518,o),
(393,518,cs),
(458,518,o),
(521,436,o),
(521,371,cs)
);
},
{
closed = 1;
nodes = (
(126,66,l),
(126,371,l),
(40,373,l),
(44,411,l),
(149,499,l),
(171,501,o),
(216,508,o),
(216,504,cs),
(216,68,l),
(294,68,l),
(294,0,l),
(51,0,l),
(51,66,l)
);
}
);
width = 643;
},
{
associatedMasterId = m01;
backgroundImage = {
imagePath = "/Users/theoverzeletti/Desktop/Capture d’écran 2025-02-10 à 09.34.51.jpeg";
locked = 1;
pos = (21,-19);
scale = (1.1227,1.1227);
};
layerId = "A363CD3F-A0AD-401C-BDC7-0109133F12EF";
name = "10 févr. 25 à 11:06";
shapes = (
{
closed = 1;
nodes = (
(216,518,ls),
(216,522,o),
(181,501,o),
(159,499,c),
(54,411,l),
(50,371,l),
(136,371,o),
(136,383,o),
(136,349,c),
(136,82,l),
(136,68,o),
(126,68,o),
(123,68,c),
(69,68,l),
(62,68,o),
(61,67,o),
(61,60,c),
(61,8,l),
(61,1,o),
(62,0,o),
(69,0,c),
(283,0,ls),
(290,0,o),
(291,1,o),
(291,8,c),
(291,60,l),
(291,67,o),
(290,68,o),
(283,68,c),
(229,68,l),
(226,68,o),
(216,68,o),
(216,82,c)
);
},
{
closed = 1;
nodes = (
(515,505,o),
(459,516,o),
(393,516,cs),
(340,516,o),
(306,500,o),
(216,414,c),
(216,343,l),
(279,411,o),
(332,448,o),
(376,448,cs),
(427,448,o),
(431,409,o),
(431,376,cs),
(431,82,l),
(431,68,o),
(421,68,o),
(418,68,c),
(364,68,l),
(357,68,o),
(356,67,o),
(356,60,c),
(356,8,l),
(356,1,o),
(357,0,o),
(364,0,c),
(578,0,ls),
(585,0,o),
(586,1,o),
(586,8,c),
(586,60,l),
(586,67,o),
(585,68,o),
(578,68,c),
(524,68,l),
(521,68,o),
(511,68,o),
(511,82,cs),
(511,376,ls)
);
}
);
width = 643;
},
{
associatedMasterId = m01;
backgroundImage = {
imagePath = "/Users/theoverzeletti/Desktop/Capture d’écran 2025-02-10 à 09.34.51.jpeg";
locked = 1;
pos = (21,-19);
scale = (1.1227,1.1227);
};
layerId = "A43A5222-B703-471F-AC88-1742C1E7C2C4";
name = "10 févr. 25 à 11:32";
shapes = (
{
closed = 1;
nodes = (
(515,505,o),
(459,516,o),
(393,516,cs),
(347,516,o),
(306,500,o),
(216,414,c),
(216,343,l),
(279,411,o),
(332,448,o),
(376,448,cs),
(427,448,o),
(431,409,o),
(431,376,cs),
(431,82,l),
(431,68,o),
(421,68,o),
(418,68,c),
(364,68,l),
(357,68,o),
(356,67,o),
(356,60,c),
(356,8,l),
(356,1,o),
(357,0,o),
(364,0,c),
(578,0,ls),
(585,0,o),
(586,1,o),
(586,8,c),
(586,60,l),
(586,67,o),
(585,68,o),
(578,68,c),
(524,68,l),
(521,68,o),
(511,68,o),
(511,82,cs),
(511,376,ls)
);
},
{
closed = 1;
nodes = (
(290,0,o),
(291,1,o),
(291,8,c),
(291,60,l),
(291,67,o),
(290,68,o),
(283,68,c),
(229,68,l),
(226,68,o),
(216,68,o),
(216,82,cs),
(216,492,ls),
(216,499,o),
(215,500,o),
(208,500,cs),
(69,500,l),
(62,500,o),
(61,499,o),
(61,492,c),
(61,440,l),
(61,433,o),
(62,432,o),
(69,432,c),
(123,432,l),
(126,432,o),
(136,432,o),
(136,418,cs),
(136,82,ls),
(136,68,o),
(126,68,o),
(123,68,c),
(69,68,l),
(62,68,o),
(61,67,o),
(61,60,c),
(61,8,l),
(61,1,o),
(62,0,o),
(69,0,cs),
(283,0,l)
);
}
);
width = 643;
},
{
associatedMasterId = m01;
backgroundImage = {
imagePath = "/Users/theoverzeletti/Desktop/Capture d’écran 2025-02-10 à 09.34.51.jpeg";
locked = 1;
pos = (21,-19);
scale = (1.1227,1.1227);
};
layerId = "64B6EA99-739F-430C-98B0-ACF6994E487B";
name = "10 févr. 25 à 11:54";
shapes = (
{
closed = 1;
nodes = (
(515,505,o),
(459,516,o),
(393,516,cs),
(347,516,o),
(306,497,o),
(216,411,c),
(216,343,l),
(279,411,o),
(332,448,o),
(376,448,cs),
(427,448,o),
(431,409,o),
(431,376,cs),
(431,82,l),
(431,68,o),
(421,68,o),
(418,68,c),
(364,68,l),
(357,68,o),
(356,67,o),
(356,60,c),
(356,8,l),
(356,1,o),
(357,0,o),
(364,0,c),
(578,0,ls),
(585,0,o),
(586,1,o),
(586,8,c),
(586,60,l),
(586,67,o),
(585,68,o),
(578,68,c),
(524,68,l),
(521,68,o),
(511,68,o),
(511,82,cs),
(511,376,ls)
);
},
{
closed = 1;
nodes = (
(61,433,o),
(62,432,o),
(69,432,c),
(123,432,l),
(126,432,o),
(136,432,o),
(136,418,cs),
(136,82,ls),
(136,68,o),
(126,68,o),
(123,68,c),
(69,68,l),
(62,68,o),
(61,67,o),
(61,60,c),
(61,8,l),
(61,1,o),
(62,0,o),
(69,0,cs),
(283,0,l),
(290,0,o),
(291,1,o),
(291,8,c),
(291,60,l),
(291,67,o),
(290,68,o),
(283,68,c),
(229,68,l),
(226,68,o),
(216,68,o),
(216,82,cs),
(216,508,ls),
(216,515,o),
(215,516,o),
(208,516,c),
(204,514,l),
(61,440,l)
);
}
);
width = 643;
},
{
associatedMasterId = m01;
backgroundImage = {
imagePath = "/Users/theoverzeletti/Desktop/Capture d’écran 2025-02-10 à 09.34.51.jpeg";
locked = 1;
pos = (21,-19);
scale = (1.1227,1.1227);
};
layerId = "B8527DE0-A702-4488-9849-70EF5412BAC7";
name = "10 févr. 25 à 12:03";
shapes = (
{
closed = 1;
nodes = (
(593,65,o),
(593,5,o),
(593,12,c),
(593,58,l)
);
},
{
closed = 1;
nodes = (
(279,70,l),
(286,70,o),
(291,65,o),
(291,58,c),
(291,12,l),
(291,5,o),
(286,0,o),
(279,0,c),
(73,0,ls),
(66,0,o),
(61,5,o),
(61,12,c),
(61,58,l),
(61,65,o),
(66,70,o),
(73,70,c)
);
},
{
closed = 1;
nodes = (
(581,70,l),
(588,70,o),
(593,65,o),
(593,58,c),
(593,12,l),
(593,5,o),
(588,0,o),
(581,0,c),
(375,0,ls),
(368,0,o),
(363,5,o),
(363,12,c),
(363,58,l),
(363,65,o),
(368,70,o),
(375,70,c)
);
},
{
closed = 1;
nodes = (
(242,386,o),
(281,438,o),
(358,438,c),
(411,438,o),
(438,399,o),
(438,312,c),
(438,70,l),
(518,70,l),
(518,372,l),
(518,436,o),
(463,516,o),
(381,516,cs),
(284,516,o),
(243,444,o),
(216,413,c),
(216,326,l)
);
},
{
closed = 1;
nodes = (
(136,50,l),
(136,360,ls),
(136,367,o),
(136,372,o),
(136,372,c),
(55,372,ls),
(48,372,o),
(43,377,o),
(43,384,c),
(43,406,l),
(43,413,o),
(47,414,o),
(55,418,c),
(83,430,o),
(95,438,o),
(120,458,cs),
(140,474,o),
(145,486,o),
(156,504,c),
(160,512,o),
(161,516,o),
(168,516,c),
(204,516,l),
(211,516,o),
(216,511,o),
(216,504,cs),
(216,50,l)
);
}
);
width = 622;
},
{
associatedMasterId = m01;
backgroundImage = {
imagePath = "/Users/theoverzeletti/Desktop/Capture d’écran 2025-02-10 à 09.34.51.jpeg";
locked = 1;
pos = (21,-19);
scale = (1.1227,1.1227);
};
layerId = "67D46974-DD4A-4C41-8400-3F8801DBDC3F";
name = "10 févr. 25 à 18:18";
shapes = (
{
closed = 1;
nodes = (
(66,70,o),
(61,65,o),
(61,58,c),
(61,12,l),
(61,5,o),
(66,0,o),
(73,0,cs),
(279,0,l),
(286,0,o),
(291,5,o),
(291,12,c),
(291,58,l),
(291,65,o),
(286,70,o),
(279,70,c),
(73,70,l)
);
},
{
closed = 1;
nodes = (
(368,70,o),
(363,65,o),
(363,58,c),
(363,12,l),
(363,5,o),
(368,0,o),
(375,0,cs),
(581,0,l),
(588,0,o),
(593,5,o),
(593,12,c),
(593,58,l),
(593,65,o),
(588,70,o),
(581,70,c),
(375,70,l)
);
},
{
closed = 1;
nodes = (
(216,504,ls),
(216,511,o),
(211,516,o),
(204,516,c),
(168,516,l),
(161,516,o),
(160,512,o),
(156,504,c),
(145,486,o),
(140,474,o),
(120,458,cs),
(95,438,o),
(83,430,o),
(55,418,c),
(47,414,o),
(43,413,o),
(43,406,c),
(43,384,l),
(43,377,o),
(48,372,o),
(55,372,cs),
(136,372,l),
(136,372,o),
(136,367,o),
(136,360,cs),
(136,50,l),
(216,50,l)
);
},
{
closed = 1;
nodes = (
(515,505,o),
(459,516,o),
(393,516,cs),
(347,516,o),
(306,497,o),
(216,411,c),
(216,343,l),
(279,411,o),
(332,448,o),
(376,448,cs),
(427,448,o),
(431,409,o),
(431,376,cs),
(431,58,l),
(511,59,l),
(511,376,l)
);
}
);
width = 622;
},
{
associatedMasterId = m01;
backgroundImage = {
imagePath = "/Users/theoverzeletti/Desktop/Capture d’écran 2025-02-10 à 09.34.51.jpeg";
locked = 1;
pos = (2,-19);
scale = (1.1227,1.1227);
};
layerId = "FBDF0391-3F7F-4366-B155-5554530D569C";
name = "10 mars 25 à 11:09";
shapes = (
{
closed = 1;
nodes = (
(496,505,o),
(440,516,o),
(374,516,cs),
(328,516,o),
(287,497,o),
(197,411,c),
(197,343,l),
(260,411,o),
(313,448,o),
(357,448,cs),
(408,448,o),
(412,409,o),
(412,376,cs),
(412,82,ls),
(412,68,o),
(402,68,o),
(399,68,cs),
(345,68,ls),
(338,68,o),
(337,67,o),
(337,60,cs),
(337,8,ls),
(337,1,o),
(338,0,o),
(345,0,cs),
(559,0,ls),
(566,0,o),
(567,1,o),
(567,8,cs),
(567,60,ls),
(567,67,o),
(566,68,o),
(559,68,cs),
(505,68,ls),
(502,68,o),
(492,68,o),
(492,82,cs),
(492,376,ls)
);
},
{
closed = 1;
nodes = (
(194,516,o),
(197,516,o),
(197,470,cs),
(197,82,ls),
(197,68,o),
(207,68,o),
(210,68,cs),
(264,68,ls),
(271,68,o),
(272,67,o),
(272,60,cs),
(272,8,ls),
(272,1,o),
(271,0,o),
(264,0,cs),
(50,0,ls),
(43,0,o),
(42,1,o),
(42,8,cs),
(42,60,ls),
(42,67,o),
(43,68,o),
(50,68,cs),
(104,68,ls),
(107,68,o),
(117,68,o),
(117,82,cs),
(117,358,ls),
(117,372,o),
(107,372,o),
(104,372,cs),
(50,372,ls),
(43,372,o),
(42,373,o),
(42,379,cs),
(42,406,l),
(159,482,o),
(130,516,o),
(156,516,cs)
);
}
);
width = 615;
},
{
associatedMasterId = m01;
backgroundImage = {
imagePath = "/Users/theoverzeletti/Desktop/Capture d’écran 2025-02-10 à 09.34.51.jpeg";
locked = 1;
pos = (2,-19);
scale = (1.1227,1.1227);
};
layerId = "281F5547-835B-4C1C-890A-5B0EA52BB14C";
name = "10 mars 25 à 11:17";
shapes = (
{
closed = 1;
nodes = (
(492,376,ls),
(492,505,o),
(440,516,o),
(374,516,cs),
(328,516,o),
(267,497,o),
(177,411,c),
(177,343,l),
(240,411,o),
(313,448,o),
(357,448,cs),
(408,448,o),
(412,409,o),
(412,376,cs),
(412,81,ls),
(412,72,o),
(408,68,o),
(399,68,cs),
(350,68,ls),
(341,68,o),
(337,64,o),
(337,55,cs),
(337,13,ls),
(337,4,o),
(341,0,o),
(350,0,cs),
(554,0,ls),
(563,0,o),
(567,4,o),
(567,13,cs),
(567,55,ls),
(567,64,o),
(563,68,o),
(554,68,cs),
(505,68,ls),
(496,68,o),
(492,72,o),
(492,81,cs)
);
},
{
closed = 1;
nodes = (
(178,516,o),
(174,514,o),
(170,511,cs),
(49,413,ls),
(43,408,o),
(42,406,o),
(42,399,cs),
(42,385,ls),
(42,376,o),
(46,372,o),
(55,372,cs),
(104,372,ls),
(113,372,o),
(117,368,o),
(117,359,cs),
(117,81,ls),
(117,72,o),
(113,68,o),
(104,68,cs),
(55,68,ls),
(46,68,o),
(42,64,o),
(42,55,cs),
(42,13,ls),
(42,4,o),
(46,0,o),
(55,0,cs),
(259,0,ls),
(268,0,o),
(272,4,o),
(272,13,cs),
(272,55,ls),
(272,64,o),
(268,68,o),
(259,68,cs),
(210,68,ls),
(201,68,o),
(197,72,o),
(197,81,cs),
(197,503,ls),
(197,512,o),
(193,516,o),
(184,516,cs)
);
}
);
width = 615;
}
);
unicode = 110;
},
{
glyphname = o;
lastChange = "2025-03-10 11:10:06 +0000";
layers = (
{
backgroundImage = {
imagePath = "/Users/theoverzeletti/Desktop/Capture d’écran 2025-02-10 à 11.35.04.png";
locked = 1;
pos = (-6,-31);
scale = (1.064,1.064);
};
layerId = m01;
shapes = (
{
closed = 1;
nodes = (
(403,-16,o),
(482,109,o),
(482,249,cs),
(482,392,o),
(383,516,o),
(256,516,cs),
(121,516,o),
(38,387,o),
(38,247,cs),
(38,104,o),
(141,-16,o),
(268,-16,cs)
);
},
{
closed = 1;
nodes = (
(193,44,o),
(121,132,o),
(121,276,cs),
(121,382,o),
(157,456,o),
(244,456,cs),
(327,456,o),
(399,368,o),
(399,224,cs),
(399,118,o),
(367,44,o),
(280,44,cs)
);
}
);
width = 513;
},
{
associatedMasterId = m01;
backgroundImage = {
imagePath = "/Users/theoverzeletti/Desktop/Capture d’écran 2025-02-10 à 11.35.04.png";
locked = 1;
pos = (46,-31);
scale = (1.064,1.064);
};
layerId = "1F76178C-A433-49A7-9749-E1D080B3F823";
name = "10 févr. 25 à 15:31";
shapes = (
{
closed = 1;
nodes = (
(451,516,o),
(557,396,o),
(557,250,cs),
(557,103,o),
(451,-16,o),
(320,-16,cs),
(188,-16,o),
(82,103,o),
(82,250,cs),
(82,396,o),
(188,516,o),
(320,516,cs)
);
},
{
closed = 1;
nodes = (
(203,441,o),
(145,337,o),
(164,223,cs),
(183,112,o),
(271,36,o),
(361,52,cs),
(454,69,o),
(512,173,o),
(493,285,cs),
(474,397,o),
(386,474,o),
(293,456,cs)
);
}
);
width = 600;
},
{
associatedMasterId = m01;
backgroundImage = {
imagePath = "/Users/theoverzeletti/Desktop/Capture d’écran 2025-02-10 à 11.35.04.png";
locked = 1;
pos = (46,-31);
scale = (1.064,1.064);
};
layerId = "A1467CF9-7069-475A-B5A7-8828EAD3DE14";
name = "10 févr. 25 à 15:32";
shapes = (
{
closed = 1;
nodes = (
(451,516,o),
(557,396,o),
(557,250,cs),
(557,103,o),
(451,-16,o),
(320,-16,cs),
(188,-16,o),
(82,103,o),
(82,250,cs),
(82,396,o),
(188,516,o),
(320,516,cs)
);
},
{
closed = 1;
nodes = (
(172,401,o),
(137,299,o),
(172,201,cs),
(206,105,o),
(296,51,o),
(373,79,cs),
(454,109,o),
(489,211,o),
(455,307,cs),
(420,404,o),
(330,459,o),
(250,428,cs)
);
}
);
width = 600;
},
{
associatedMasterId = m01;
backgroundImage = {
imagePath = "/Users/theoverzeletti/Desktop/Capture d’écran 2025-02-10 à 11.35.04.png";
locked = 1;
pos = (-6,-31);
scale = (1.064,1.064);
};
layerId = "CE10DF4F-FF19-410A-BE1F-AC2565B5C656";
name = "10 mars 25 à 11:25";
shapes = (
{
closed = 1;
nodes = (
(386,516,o),
(489,396,o),
(489,250,cs),
(489,103,o),
(386,-16,o),
(260,-16,cs),
(132,-16,o),
(30,103,o),
(30,250,cs),
(30,396,o),
(132,516,o),
(260,516,cs)
);
},
{
closed = 1;
nodes = (
(114,401,o),
(79,299,o),
(114,201,cs),
(148,105,o),
(238,51,o),
(315,79,cs),
(396,109,o),
(431,211,o),
(397,307,cs),
(362,404,o),
(272,459,o),
(192,428,cs)
);
}
);
width = 529;
}
);
unicode = 111;
},
{
glyphname = p;
lastChange = "2025-03-10 17:29:30 +0000";
layers = (
{
backgroundImage = {
imagePath = "/Users/theoverzeletti/Desktop/Capture d’écran 2025-02-10 à 13.04.09.png";
locked = 1;
pos = (-121,-329);
scale = (6.2891,6.2891);
};
layerId = m01;
shapes = (
{
closed = 1;
nodes = (
(190,505,o),
(186,507,o),
(180,507,cs),
(174,507,o),
(170,505,o),
(163,500,cs),
(30,399,l),
(30,377,l),
(97,377,ls),
(106,377,o),
(110,373,o),
(110,364,cs),
(110,-132,l),
(48,-132,ls),
(39,-132,o),
(35,-136,o),
(35,-145,cs),
(35,-187,ls),
(35,-196,o),
(39,-200,o),
(48,-200,cs),
(252,-200,ls),
(261,-200,o),
(265,-196,o),
(265,-187,cs),
(265,-145,ls),
(265,-136,o),
(261,-132,o),
(252,-132,cs),
(190,-132,l),
(190,500,ls)
);
},
{
closed = 1;
nodes = (
(475,-16,o),
(554,109,o),
(554,249,cs),
(554,392,o),
(455,516,o),
(328,516,cs),
(193,516,o),
(110,358,o),
(110,237,cs),
(110,114,o),
(213,-16,o),
(340,-16,cs)
);
},
{
closed = 1;
nodes = (
(265,44,o),
(190,142,o),
(190,266,cs),
(190,352,o),
(229,456,o),
(316,456,cs),
(399,456,o),
(474,368,o),
(474,224,cs),
(474,118,o),
(439,44,o),
(352,44,cs)
);
}
);
width = 580;
},
{
associatedMasterId = m01;
backgroundImage = {
imagePath = "/Users/theoverzeletti/Desktop/Capture d’écran 2025-02-10 à 13.04.09.png";
locked = 1;
pos = (-84,-329);
scale = (6.2891,6.2891);
};
layerId = "05615285-F445-4582-ABAD-7BD3A10C385C";
name = "10 févr. 25 à 14:01";
shapes = (
{
closed = 1;
nodes = (
(248,-130,l),
(255,-130,o),
(260,-135,o),
(260,-142,c),
(260,-188,l),
(260,-195,o),
(255,-200,o),
(248,-200,c),
(42,-200,ls),
(35,-200,o),
(30,-195,o),
(30,-188,c),
(30,-142,l),
(30,-135,o),
(35,-130,o),
(42,-130,c)
);
},
{
closed = 1;
nodes = (
(105,-150,l),
(105,360,ls),
(105,367,o),
(105,372,o),
(105,372,c),
(24,372,ls),
(17,372,o),
(12,377,o),
(12,384,c),
(12,406,l),
(12,413,o),
(16,414,o),
(24,418,c),
(52,430,o),
(64,438,o),
(89,458,cs),
(109,474,o),
(114,486,o),
(125,504,c),
(129,512,o),
(130,516,o),
(137,516,c),
(173,516,l),
(180,516,o),
(185,511,o),
(185,504,cs),
(185,-150,l)
);
},
{
closed = 1;
nodes = (
(209,-16,o),
(106,100,o),
(106,242,cs),
(106,385,o),
(209,500,o),
(336,500,cs),
(464,500,o),
(567,385,o),
(567,242,cs),
(567,100,o),
(464,-16,o),
(336,-16,cs)
);
},
{
closed = 1;
nodes = (
(453,72,o),
(506,167,o),
(489,269,cs),
(470,371,o),
(388,442,o),
(303,427,cs),
(220,412,o),
(166,318,o),
(185,215,cs),
(202,114,o),
(285,42,o),
(369,57,cs)
);
}
);
width = 617;
},
{
associatedMasterId = m01;
backgroundImage = {
imagePath = "/Users/theoverzeletti/Desktop/Capture d’écran 2025-02-10 à 13.04.09.png";
locked = 1;
pos = (-84,-329);
scale = (6.2891,6.2891);
};
layerId = "9777C974-4A59-4168-A57D-A606E7074FE2";
name = "10 févr. 25 à 18:19";
shapes = (
{
closed = 1;
nodes = (
(248,-130,l),
(255,-130,o),
(260,-135,o),
(260,-142,c),
(260,-188,l),
(260,-195,o),
(255,-200,o),
(248,-200,c),
(42,-200,ls),
(35,-200,o),
(30,-195,o),
(30,-188,c),
(30,-142,l),
(30,-135,o),
(35,-130,o),
(42,-130,c)
);
},
{
closed = 1;
nodes = (
(105,-150,l),
(105,360,ls),
(105,367,o),
(105,372,o),
(105,372,c),
(24,372,ls),
(17,372,o),
(12,377,o),
(12,384,c),
(12,406,l),
(12,413,o),
(16,414,o),
(24,418,c),
(52,430,o),
(64,438,o),
(89,458,cs),
(109,474,o),
(114,486,o),
(125,504,c),
(129,512,o),
(130,516,o),
(137,516,c),
(173,516,l),
(180,516,o),
(185,511,o),
(185,504,cs),
(185,-150,l)
);
},
{
closed = 1;
nodes = (
(209,-16,o),
(106,100,o),
(106,242,cs),
(106,385,o),
(209,500,o),
(336,500,cs),
(464,500,o),
(567,385,o),
(567,242,cs),
(567,100,o),
(464,-16,o),
(336,-16,cs)
);
},
{
closed = 1;
nodes = (
(450,57,o),
(506,158,o),
(487,268,cs),
(469,376,o),
(384,450,o),
(296,434,cs),
(206,418,o),
(150,317,o),
(168,208,cs),
(187,99,o),
(272,25,o),
(362,42,cs)
);
}
);
width = 617;
},
{
associatedMasterId = m01;
backgroundImage = {
imagePath = "/Users/theoverzeletti/Desktop/Capture d’écran 2025-02-10 à 13.04.09.png";
locked = 1;
pos = (-84,-329);
scale = (6.2891,6.2891);
};
layerId = "FAA2299B-DF99-4ADC-9A43-3555D5770D6F";
name = "10 mars 25 à 11:47";
shapes = (
{
closed = 1;
nodes = (
(227,504,o),
(223,506,o),
(217,506,cs),
(211,506,o),
(207,504,o),
(200,499,cs),
(67,398,l),
(67,376,l),
(134,376,ls),
(143,376,o),
(147,372,o),
(147,363,cs),
(147,-132,l),
(85,-132,ls),
(76,-132,o),
(72,-136,o),
(72,-145,cs),
(72,-187,ls),
(72,-196,o),
(76,-200,o),
(85,-200,cs),
(289,-200,ls),
(298,-200,o),
(302,-196,o),
(302,-187,cs),
(302,-145,ls),
(302,-136,o),
(298,-132,o),
(289,-132,cs),
(227,-132,l),
(227,499,ls)
);
},
{
closed = 1;
nodes = (
(511,-16,o),
(590,109,o),
(590,249,cs),
(590,392,o),
(491,516,o),
(364,516,cs),
(229,516,o),
(146,387,o),
(146,247,cs),
(146,104,o),
(249,-16,o),
(376,-16,cs)
);
},
{
closed = 1;
nodes = (
(301,44,o),
(229,132,o),
(229,276,cs),
(229,382,o),
(265,456,o),
(352,456,cs),
(435,456,o),
(507,368,o),
(507,224,cs),
(507,118,o),
(475,44,o),
(388,44,cs)
);
}
);
width = 617;
},
{
associatedMasterId = m01;
backgroundImage = {
imagePath = "/Users/theoverzeletti/Desktop/Capture d’écran 2025-02-10 à 13.04.09.png";
locked = 1;
pos = (-84,-329);
scale = (6.2891,6.2891);
};
layerId = "3047F8EA-AE07-428D-A105-FB22C16DF623";
name = "10 mars 25 à 11:48";
shapes = (
{
closed = 1;
nodes = (
(227,504,o),
(223,506,o),
(217,506,cs),
(211,506,o),
(207,504,o),
(200,499,cs),
(67,398,l),
(67,376,l),
(134,376,ls),
(143,376,o),
(147,372,o),
(147,363,cs),
(147,-132,l),
(85,-132,ls),
(76,-132,o),
(72,-136,o),
(72,-145,cs),
(72,-187,ls),
(72,-196,o),
(76,-200,o),
(85,-200,cs),
(289,-200,ls),
(298,-200,o),
(302,-196,o),
(302,-187,cs),
(302,-145,ls),
(302,-136,o),
(298,-132,o),
(289,-132,cs),
(227,-132,l),
(227,499,ls)
);
},
{
closed = 1;
nodes = (
(512,-16,o),
(591,109,o),
(591,249,cs),
(591,392,o),
(492,516,o),
(365,516,cs),
(230,516,o),
(147,387,o),
(147,247,cs),
(147,104,o),
(250,-16,o),
(377,-16,cs)
);
},
{
closed = 1;
nodes = (
(302,44,o),
(230,132,o),
(230,276,cs),
(230,382,o),
(266,456,o),
(353,456,cs),
(436,456,o),
(508,368,o),
(508,224,cs),
(508,118,o),
(476,44,o),
(389,44,cs)
);
}
);
width = 617;
}
);
unicode = 112;
},
{
glyphname = q;
lastChange = "2025-03-10 15:38:56 +0000";
layers = (
{
layerId = m01;
shapes = (
{
closed = 1;
nodes = (
(390,-16,o),
(493,114,o),
(493,237,cs),
(493,358,o),
(410,517,o),
(275,516,cs),
(148,515,o),
(49,392,o),
(49,249,cs),
(49,109,o),
(128,-16,o),
(263,-16,cs)
);
},
{
closed = 1;
nodes = (
(164,44,o),
(129,118,o),
(129,224,cs),
(129,368,o),
(204,456,o),
(287,456,cs),
(374,456,o),
(413,352,o),
(413,266,cs),
(413,142,o),
(338,44,o),
(251,44,cs)
);
},
{
closed = 1;
nodes = (
(390,-16,o),
(493,114,o),
(493,237,cs),
(493,358,o),
(410,517,o),
(275,516,cs),
(148,515,o),
(49,392,o),
(49,249,cs),
(49,109,o),
(128,-16,o),
(263,-16,cs)
);
},
{
closed = 1;
nodes = (
(164,44,o),
(129,118,o),
(129,224,cs),
(129,368,o),
(204,456,o),
(287,456,cs),
(374,456,o),
(413,352,o),
(413,266,cs),
(413,142,o),
(338,44,o),
(251,44,cs)
);
},
{
closed = 1;
nodes = (
(413,-132,l),
(351,-132,ls),
(342,-132,o),
(338,-136,o),
(338,-145,cs),
(338,-187,ls),
(338,-196,o),
(342,-200,o),
(351,-200,cs),
(555,-200,ls),
(564,-200,o),
(568,-196,o),
(568,-187,cs),
(568,-145,ls),
(568,-136,o),
(564,-132,o),
(555,-132,cs),
(493,-132,l),
(493,364,ls),
(493,373,o),
(497,377,o),
(506,377,cs),
(573,377,l),
(573,399,l),
(440,500,ls),
(433,505,o),
(429,507,o),
(423,507,cs),
(417,507,o),
(413,505,o),
(413,500,cs)
);
}
);
width = 612;
},
{
associatedMasterId = m01;
layerId = "8EE87BA2-7774-4729-9CDD-006C2CDBB02B";
name = "10 mars 25 à 14:40";
shapes = (
{
closed = 1;
nodes = (
(401,-132,l),
(339,-132,ls),
(330,-132,o),
(326,-136,o),
(326,-145,cs),
(326,-187,ls),
(326,-196,o),
(330,-200,o),
(339,-200,cs),
(543,-200,ls),
(552,-200,o),
(556,-196,o),
(556,-187,cs),
(556,-145,ls),
(556,-136,o),
(552,-132,o),
(543,-132,cs),
(481,-132,l),
(481,364,ls),
(481,373,o),
(485,377,o),
(494,377,cs),
(561,377,l),
(561,399,l),
(428,500,ls),
(421,505,o),
(417,507,o),
(411,507,cs),
(405,507,o),
(401,505,o),
(401,500,cs)
);
},
{
closed = 1;
nodes = (
(378,-16,o),
(481,114,o),
(481,237,cs),
(481,358,o),
(398,517,o),
(263,516,cs),
(136,515,o),
(37,392,o),
(37,249,cs),
(37,109,o),
(116,-16,o),
(251,-16,cs)
);
},
{
closed = 1;
nodes = (
(152,44,o),
(117,118,o),
(117,224,cs),
(117,368,o),
(192,456,o),
(275,456,cs),
(362,456,o),
(401,352,o),
(401,266,cs),
(401,142,o),
(326,44,o),
(239,44,cs)
);
}
);
width = 600;
}
);
unicode = 113;
},
{
glyphname = r;
lastChange = "2025-03-10 17:19:36 +0000";
layers = (
{
backgroundImage = {
imagePath = "LETTRE/r.png";
locked = 1;
pos = (-107,-79);
scale = (2.8228,2.8228);
};
layerId = m01;
shapes = (
{
closed = 1;
nodes = (
(205,505,o),
(201,507,o),
(195,507,cs),
(189,507,o),
(185,505,o),
(178,500,cs),
(45,399,l),
(45,377,l),
(112,377,ls),
(121,377,o),
(125,373,o),
(125,364,cs),
(124,68,l),
(62,68,ls),
(53,68,o),
(49,64,o),
(49,55,cs),
(49,13,ls),
(49,4,o),
(53,0,o),
(62,0,cs),
(266,0,ls),
(275,0,o),
(279,4,o),
(279,13,cs),
(279,55,ls),
(279,64,o),
(275,68,o),
(266,68,cs),
(204,68,l),
(205,500,ls)
);
},
{
closed = 1;
nodes = (
(297,516,o),
(201,423,o),
(194,351,c),
(194,293,l),
(210,352,o),
(250,415,o),
(279,415,c),
(302,415,o),
(324,334,o),
(331,334,cs),
(336,334,o),
(380,390,o),
(380,396,cs),
(380,403,o),
(318,516,o),
(306,516,cs)
);
}
);
width = 418;
}
);
unicode = 114;
},
{
glyphname = s;
lastChange = "2025-03-11 14:56:07 +0000";
layers = (
{
backgroundImage = {
imagePath = "LETTRE/s.png";
locked = 1;
pos = (-116,-110);
scale = (8.7382,8.7382);
};
layerId = m01;
shapes = (
{
closed = 1;
nodes = (
(367,516,ls),
(376,516,o),
(380,512,o),
(380,503,cs),
(380,358,ls),
(380,349,o),
(376,345,o),
(367,345,cs),
(358,345,ls),
(346,345,o),
(310,453,o),
(203,453,cs),
(148,453,o),
(129,411,o),
(129,382,c),
(129,271,o),
(400,325,o),
(400,120,cs),
(400,51,o),
(342,-16,o),
(246,-16,cs),
(203,-16,o),
(145,14,o),
(116,14,cs),
(87,14,o),
(80,-16,o),
(68,-16,cs),
(59,-16,ls),
(50,-16,o),
(46,-12,o),
(46,-3,cs),
(46,142,ls),
(46,151,o),
(50,155,o),
(59,155,cs),
(68,155,ls),
(80,155,o),
(136,47,o),
(246,47,cs),
(285,47,o),
(317,83,o),
(317,120,c),
(317,239,o),
(46,205,o),
(46,382,cs),
(46,468,o),
(132,516,o),
(203,516,cs),
(247,516,o),
(281,486,o),
(310,486,cs),
(339,486,o),
(346,516,o),
(358,516,cs)
);
}
);
width = 449;
},
{
associatedMasterId = m01;
backgroundImage = {
imagePath = "LETTRE/s.png";
locked = 1;
pos = (-35,-110);
scale = (8.7382,8.7382);
};
layerId = "3FDFD4D1-464C-4B67-A700-A7EDB210A5E7";
name = "10 févr. 25 à 17:19";
shapes = (
{
closed = 0;
nodes = (
(321,454,l),
(349,442,o),
(361,434,o),
(386,414,cs),
(406,398,o),
(411,386,o),
(422,368,c),
(426,360,o),
(427,356,o),
(434,356,c),
(470,356,l),
(477,356,o),
(482,361,o),
(482,368,cs),
(482,500,l),
(321,500,l)
);
},
{
closed = 0;
nodes = (
(278,46,l),
(250,58,o),
(238,66,o),
(213,86,cs),
(193,102,o),
(188,114,o),
(177,132,c),
(173,140,o),
(172,144,o),
(165,144,c),
(129,144,l),
(122,144,o),
(117,139,o),
(117,132,c),
(117,12,ls),
(117,5,o),
(122,0,o),
(129,0,c),
(165,0,l),
(172,0,o),
(173,4,o),
(177,12,cs),
(181,20,o),
(201,30,o),
(244,-5,cs),
(287,-40,o),
(493,-4,o),
(493,109,c)
);
}
);
width = 600;
},
{
associatedMasterId = m01;
backgroundImage = {
imagePath = "LETTRE/s.png";
locked = 1;
pos = (-112,-110);
scale = (8.7382,8.7382);
};
layerId = "BC1E4BC3-6C76-489E-8A2C-3678EA28B930";
name = "10 févr. 25 à 17:51";
shapes = (
{
closed = 1;
nodes = (
(416,48,o),
(353,-15,o),
(237,-15,cs),
(139,-15,o),
(124,40,o),
(100,12,cs),
(93,4,o),
(95,0,o),
(88,0,c),
(52,0,l),
(45,0,o),
(40,5,o),
(40,12,cs),
(40,132,l),
(40,139,o),
(45,144,o),
(52,144,c),
(88,144,l),
(95,144,o),
(96,140,o),
(100,132,c),
(139,68,o),
(180,36,o),
(247,36,cs),
(292,36,o),
(324,72,o),
(324,114,cs),
(324,142,o),
(328,197,o),
(203,230,cs),
(113,254,o),
(40,320,o),
(40,386,cs),
(40,452,o),
(103,515,o),
(219,515,cs),
(317,515,o),
(332,460,o),
(356,488,cs),
(363,496,o),
(361,500,o),
(368,500,c),
(404,500,l),
(411,500,o),
(416,495,o),
(416,488,cs),
(416,368,l),
(416,361,o),
(411,356,o),
(404,356,c),
(368,356,l),
(361,356,o),
(360,360,o),
(356,368,c),
(317,432,o),
(276,464,o),
(209,464,cs),
(164,464,o),
(132,428,o),
(132,386,cs),
(132,344,o),
(158,333,o),
(270,292,cs),
(382,251,o),
(418,202,o),
(416,114,cs)
);
}
);
width = 461;
},
{
associatedMasterId = m01;
backgroundImage = {
imagePath = "LETTRE/s.png";
locked = 1;
pos = (-112,-110);
scale = (8.7382,8.7382);
};
layerId = "2CAB2EC0-3B30-4FCD-8EA1-C0BEF9E75C7B";
name = "10 févr. 25 à 17:54";
shapes = (
{
closed = 1;
nodes = (
(399,41,o),
(353,-15,o),
(237,-15,cs),
(139,-15,o),
(124,40,o),
(100,12,cs),
(93,4,o),
(95,0,o),
(88,0,c),
(52,0,l),
(45,0,o),
(40,5,o),
(40,12,cs),
(40,132,l),
(40,139,o),
(45,144,o),
(52,144,c),
(88,144,l),
(95,144,o),
(95,140,o),
(100,132,cs),
(139,68,o),
(170,50,o),
(237,50,cs),
(282,50,o),
(317,72,o),
(317,114,cs),
(317,146,o),
(308,188,o),
(190,244,cs),
(94,290,o),
(40,320,o),
(40,386,cs),
(40,452,o),
(103,515,o),
(219,515,cs),
(317,515,o),
(332,460,o),
(356,488,cs),
(363,496,o),
(361,500,o),
(368,500,c),
(404,500,l),
(411,500,o),
(416,495,o),
(416,488,cs),
(416,368,l),
(416,361,o),
(411,356,o),
(404,356,c),
(368,356,l),
(361,356,o),
(360,360,o),
(356,368,c),
(317,432,o),
(276,464,o),
(209,464,cs),
(164,464,o),
(132,428,o),
(132,386,cs),
(132,344,o),
(151,338,o),
(261,283,cs),
(373,227,o),
(394,213,o),
(397,114,cs)
);
}
);
width = 461;
},
{
associatedMasterId = m01;
backgroundImage = {
imagePath = "LETTRE/s.png";
locked = 1;
pos = (-112,-110);
scale = (8.7382,8.7382);
};
layerId = "0A376A8B-4216-4D15-ABBA-0CDF635C6B20";
name = "10 févr. 25 à 17:55";
shapes = (
{
closed = 1;
nodes = (
(416,42,o),
(353,-15,o),
(237,-15,cs),
(139,-15,o),
(124,40,o),
(100,12,cs),
(93,4,o),
(95,0,o),
(88,0,c),
(52,0,l),
(45,0,o),
(40,5,o),
(40,12,cs),
(40,132,l),
(40,139,o),
(45,144,o),
(52,144,c),
(88,144,l),
(95,144,o),
(95,140,o),
(100,132,cs),
(139,68,o),
(170,50,o),
(237,50,cs),
(282,50,o),
(317,72,o),
(317,114,cs),
(317,146,o),
(308,188,o),
(190,244,cs),
(94,290,o),
(40,320,o),
(40,386,cs),
(40,452,o),
(103,515,o),
(219,515,cs),
(317,515,o),
(332,460,o),
(356,488,cs),
(363,496,o),
(361,500,o),
(368,500,c),
(404,500,l),
(411,500,o),
(416,495,o),
(416,488,cs),
(416,368,l),
(416,361,o),
(411,356,o),
(404,356,c),
(368,356,l),
(361,356,o),
(360,360,o),
(356,368,c),
(317,432,o),
(276,464,o),
(209,464,cs),
(164,464,o),
(132,428,o),
(132,386,cs),
(132,344,o),
(154,347,o),
(264,292,cs),
(376,236,o),
(416,205,o),
(416,114,cs)
);
}
);
width = 461;
},
{
associatedMasterId = m01;
backgroundImage = {
imagePath = "LETTRE/s.png";
locked = 1;
pos = (-112,-110);
scale = (8.7382,8.7382);
};
layerId = "7705CFD4-0818-48B1-B659-538C475165AD";
name = "10 mars 25 à 10:53";
shapes = (
{
closed = 1;
nodes = (
(429,34,o),
(353,-15,o),
(237,-15,cs),
(139,-15,o),
(124,40,o),
(100,12,cs),
(93,4,o),
(95,0,o),
(88,0,c),
(52,0,l),
(45,0,o),
(40,5,o),
(40,12,cs),
(40,132,l),
(40,139,o),
(45,144,o),
(52,144,c),
(88,144,l),
(95,144,o),
(95,140,o),
(100,132,cs),
(139,68,o),
(170,50,o),
(237,50,cs),
(282,50,o),
(342,49,o),
(342,120,cs),
(342,161,o),
(315,172,o),
(190,220,cs),
(92,258,o),
(40,320,o),
(40,386,cs),
(40,452,o),
(103,515,o),
(219,515,cs),
(317,515,o),
(332,460,o),
(356,488,cs),
(363,496,o),
(361,500,o),
(368,500,c),
(404,500,l),
(411,500,o),
(416,495,o),
(416,488,cs),
(416,368,l),
(416,361,o),
(411,356,o),
(404,356,c),
(368,356,l),
(361,356,o),
(360,360,o),
(356,368,c),
(317,432,o),
(276,464,o),
(209,464,cs),
(164,464,o),
(132,428,o),
(132,386,cs),
(132,344,o),
(149,308,o),
(264,268,cs),
(386,226,o),
(404,223,o),
(416,132,cs)
);
}
);
width = 461;
},
{
associatedMasterId = m01;
backgroundImage = {
imagePath = "LETTRE/s.png";
locked = 1;
pos = (5,-110);
scale = (8.7382,8.7382);
};
layerId = "2D2E7DB7-009B-4360-A7D8-5C9C1576C488";
name = "10 mars 25 à 17:09";
shapes = (
{
closed = 1;
nodes = (
(250,271,o),
(521,325,o),
(521,120,cs),
(521,51,o),
(463,-16,o),
(367,-16,cs),
(324,-16,o),
(266,14,o),
(237,14,cs),
(208,14,o),
(202,3,o),
(189,-16,c),
(167,-16,l),
(167,155,l),
(189,155,l),
(219,115,o),
(257,47,o),
(367,47,cs),
(406,47,o),
(438,83,o),
(438,120,c),
(438,239,o),
(167,205,o),
(167,382,cs),
(167,468,o),
(253,516,o),
(324,516,cs),
(368,516,o),
(422,486,o),
(451,486,cs),
(480,486,o),
(486,497,o),
(499,516,c),
(521,516,l),
(521,345,l),
(499,345,l),
(469,385,o),
(431,453,o),
(324,453,cs),
(269,453,o),
(250,411,o),
(250,382,c)
);
}
);
width = 578;
},
{
associatedMasterId = m01;
backgroundImage = {
imagePath = "LETTRE/s.png";
locked = 1;
pos = (5,-110);
scale = (8.7382,8.7382);
};
layerId = "96B25307-49C5-43B9-9C85-DA39A01746D3";
name = "10 mars 25 à 17:18";
shapes = (
{
closed = 1;
nodes = (
(250,271,o),
(521,325,o),
(521,120,cs),
(521,51,o),
(463,-16,o),
(367,-16,cs),
(324,-16,o),
(266,14,o),
(237,14,cs),
(208,14,o),
(202,3,o),
(189,-16,c),
(167,-16,l),
(167,155,l),
(189,155,l),
(219,115,o),
(257,47,o),
(367,47,cs),
(406,47,o),
(438,83,o),
(438,120,c),
(438,239,o),
(167,205,o),
(167,382,cs),
(167,468,o),
(253,516,o),
(324,516,cs),
(368,516,o),
(402,486,o),
(431,486,cs),
(460,486,o),
(466,497,o),
(479,516,c),
(501,516,l),
(501,345,l),
(479,345,l),
(449,385,o),
(431,453,o),
(324,453,cs),
(269,453,o),
(250,411,o),
(250,382,c)
);
}
);
width = 578;
}
);
unicode = 115;
},
{
glyphname = t;
lastChange = "2025-03-11 16:35:39 +0000";
layers = (
{
backgroundImage = {
imagePath = "LETTRE/t.png";
locked = 1;
pos = (-43,-61);
scale = (2.2469,2.2469);
};
layerId = m01;
shapes = (
{
closed = 1;
nodes = (
(302,500,ls),
(311,500,o),
(315,496,o),
(315,487,cs),
(315,445,ls),
(315,436,o),
(311,432,o),
(302,432,cs),
(19,432,ls),
(10,432,o),
(6,436,o),
(6,445,cs),
(6,487,ls),
(6,496,o),
(10,500,o),
(19,500,cs),
(240,500,l)
);
},
{
closed = 1;
nodes = (
(165,112,l),
(165,92,o),
(173,66,o),
(228,66,cs),
(283,66,o),
(299,109,o),
(299,118,c),
(299,127,o),
(352,127,o),
(352,118,c),
(352,75,o),
(291,-16,o),
(196,-16,cs),
(104,-16,o),
(85,78,o),
(85,125,c),
(85,627,ls),
(85,633,o),
(81,637,o),
(72,637,cs),
(5,637,l),
(5,659,l),
(138,760,ls),
(145,765,o),
(149,767,o),
(155,767,cs),
(161,767,o),
(165,765,o),
(165,760,cs)
);
}
);
width = 372;
},
{
associatedMasterId = m01;
backgroundImage = {
imagePath = "LETTRE/t.png";
locked = 1;
pos = (110,-51);
scale = (1.8425,1.8425);
};
layerId = "3B228D7E-2AC7-43AD-A7F3-2BA3B195865C";
name = "9 mars 25 à 20:58";
shapes = (
{
closed = 1;
nodes = (
(409,70,l),
(416,70,o),
(421,65,o),
(421,58,c),
(421,12,l),
(421,5,o),
(416,0,o),
(409,0,c),
(203,0,ls),
(196,0,o),
(191,5,o),
(191,12,c),
(191,58,l),
(191,65,o),
(196,70,o),
(203,70,c)
);
},
{
closed = 1;
nodes = (
(266,50,l),
(266,361,ls),
(266,368,o),
(266,373,o),
(266,373,c),
(185,373,ls),
(178,373,o),
(173,378,o),
(173,385,c),
(173,407,l),
(173,414,o),
(177,415,o),
(185,419,c),
(213,431,o),
(225,439,o),
(250,459,cs),
(270,475,o),
(275,487,o),
(286,505,c),
(290,513,o),
(291,517,o),
(298,517,c),
(334,517,l),
(341,517,o),
(346,512,o),
(346,505,cs),
(346,50,l)
);
},
{
closed = 0;
nodes = (
(346,351,l),
(346,409,l)
);
},
{
closed = 1;
nodes = (
(416,417,o),
(411,421,o),
(406,421,c),
(346,421,l),
(346,363,l),
(406,363,ls),
(411,363,o),
(416,367,o),
(416,373,cs),
(416,411,l)
);
}
);
width = 600;
},
{
associatedMasterId = m01;
backgroundImage = {
imagePath = "LETTRE/t.png";
locked = 1;
pos = (110,-51);
scale = (1.8425,1.8425);
};
layerId = "7CAABF20-ED60-49ED-ABEC-EEFB27F59540";
name = "10 mars 25 à 16:26";
shapes = (
{
closed = 0;
nodes = (
(241,276,ls),
(241,132,o),
(313,44,o),
(400,44,cs),
(454,44,o),
(487,73,o),
(504,121,c),
(511,146,o),
(531,152,o),
(548,146,cs),
(568,139,o),
(573,109,o),
(564,93,c),
(528,28,o),
(468,-16,o),
(388,-16,cs),
(261,-16,o),
(158,104,o),
(158,247,cs)
);
},
{
closed = 0;
nodes = (
(288,185,ls),
(288,79,o),
(325,44,o),
(377,44,cs),
(436,44,o),
(480,78,o),
(497,124,c),
(507,154,o),
(529,162,o),
(550,154,cs),
(574,146,o),
(580,110,o),
(569,92,cs),
(528,28,o),
(463,-16,o),
(389,-16,cs),
(254,-16,o),
(208,45,o),
(208,185,cs)
);
}
);
width = 600;
},
{
associatedMasterId = m01;
backgroundImage = {
imagePath = "LETTRE/t.png";
locked = 1;
pos = (70,-61);
scale = (2.2469,2.2469);
};
layerId = "B54F00C8-265B-4AD8-97D0-09F47B0FA5FD";
name = "10 mars 25 à 16:30";
shapes = (
{
closed = 0;
nodes = (
(249,185,ls),
(249,79,o),
(286,44,o),
(338,44,cs),
(397,44,o),
(441,78,o),
(458,124,c),
(468,154,o),
(490,162,o),
(511,154,cs),
(535,146,o),
(541,110,o),
(530,92,cs),
(489,28,o),
(424,-16,o),
(350,-16,cs),
(215,-16,o),
(169,45,o),
(169,185,cs)
);
},
{
closed = 1;
nodes = (
(131,500,ls),
(122,500,o),
(118,496,o),
(118,487,cs),
(118,445,ls),
(118,436,o),
(122,432,o),
(131,432,cs),
(335,432,ls),
(344,432,o),
(348,436,o),
(348,445,cs),
(348,487,ls),
(348,496,o),
(344,500,o),
(335,500,cs),
(273,500,l)
);
},
{
closed = 1;
nodes = (
(277,627,o),
(273,629,o),
(267,629,cs),
(261,629,o),
(257,627,o),
(250,622,cs),
(117,521,l),
(117,499,l),
(184,499,ls),
(193,499,o),
(197,495,o),
(197,486,cs),
(197,128,l),
(135,128,ls),
(126,128,o),
(122,124,o),
(122,115,cs),
(122,73,ls),
(122,64,o),
(126,60,o),
(135,60,cs),
(339,60,ls),
(348,60,o),
(352,64,o),
(352,73,cs),
(352,115,ls),
(352,124,o),
(348,128,o),
(339,128,cs),
(277,128,l),
(277,622,ls)
);
}
);
width = 600;
}
);
unicode = 116;
},
{
glyphname = u;
lastChange = "2025-03-11 14:26:42 +0000";
layers = (
{
layerId = m01;
shapes = (
{
closed = 1;
nodes = (
(186,505,o),
(182,507,o),
(176,507,cs),
(170,507,o),
(166,505,o),
(159,500,cs),
(26,399,l),
(26,377,l),
(93,377,ls),
(102,377,o),
(106,373,o),
(106,364,cs),
(106,164,ls),
(106,53,o),
(146,-16,o),
(254,-16,cs),
(326,-16,o),
(409,45,o),
(425,149,c),
(425,207,l),
(392,89,o),
(336,52,o),
(271,52,cs),
(209,52,o),
(186,100,o),
(186,163,cs),
(186,500,ls)
);
},
{
closed = 1;
nodes = (
(495,505,o),
(491,507,o),
(485,507,cs),
(479,507,o),
(475,505,o),
(468,500,cs),
(335,399,l),
(335,377,l),
(402,377,ls),
(411,377,o),
(415,373,o),
(415,364,cs),
(415,0,ls),
(415,-5,o),
(419,-7,o),
(425,-7,cs),
(431,-7,o),
(435,-5,o),
(442,0,cs),
(575,101,l),
(575,123,l),
(553,116,o),
(530,111,o),
(518,111,cs),
(499,111,o),
(495,127,o),
(495,136,cs),
(495,500,ls)
);
}
);
width = 594;
},
{
associatedMasterId = m01;
layerId = "42BBA868-C95A-4CC0-8B9E-D10E5B068704";
name = "10 mars 25 à 11:33";
shapes = (
{
closed = 1;
nodes = (
(118,-5,o),
(174,-16,o),
(240,-16,cs),
(286,-16,o),
(327,3,o),
(417,89,c),
(417,157,l),
(354,89,o),
(301,52,o),
(257,52,cs),
(206,52,o),
(202,91,o),
(202,124,cs),
(202,418,l),
(202,432,o),
(212,432,o),
(215,432,c),
(269,432,l),
(276,432,o),
(277,433,o),
(277,440,c),
(277,492,l),
(277,499,o),
(276,500,o),
(269,500,c),
(55,500,ls),
(48,500,o),
(47,499,o),
(47,492,c),
(47,440,l),
(47,433,o),
(48,432,o),
(55,432,c),
(109,432,l),
(112,432,o),
(122,432,o),
(122,418,cs),
(122,124,ls)
);
},
{
closed = 1;
nodes = (
(497,68,o),
(507,68,o),
(510,68,c),
(564,68,l),
(571,68,o),
(572,67,o),
(572,60,c),
(572,8,l),
(572,1,o),
(571,0,o),
(564,0,c),
(425,0,ls),
(419,0,o),
(417,1,o),
(417,8,cs),
(417,418,ls),
(417,432,o),
(407,432,o),
(404,432,c),
(350,432,l),
(343,432,o),
(342,433,o),
(342,440,c),
(342,492,l),
(342,499,o),
(343,500,o),
(350,500,c),
(564,500,ls),
(571,500,o),
(572,499,o),
(572,492,c),
(572,440,l),
(572,433,o),
(571,432,o),
(564,432,c),
(510,432,l),
(507,432,o),
(497,432,o),
(497,418,cs),
(497,82,ls)
);
}
);
width = 600;
},
{
associatedMasterId = m01;
layerId = "7AF2D584-1A76-44BA-BA2B-48943CC0211E";
name = "10 mars 25 à 17:22";
shapes = (
{
closed = 1;
nodes = (
(112,164,ls),
(112,53,o),
(152,-16,o),
(260,-16,cs),
(332,-16,o),
(415,45,o),
(431,149,c),
(431,207,l),
(398,89,o),
(342,52,o),
(277,52,cs),
(215,52,o),
(192,100,o),
(192,163,cs),
(192,500,l),
(50,500,ls),
(41,500,o),
(37,496,o),
(37,487,cs),
(37,445,ls),
(37,436,o),
(41,432,o),
(50,432,cs),
(112,432,l)
);
},
{
closed = 1;
nodes = (
(421,-5,o),
(425,-7,o),
(431,-7,cs),
(437,-7,o),
(441,-5,o),
(448,0,cs),
(581,101,l),
(581,123,l),
(559,116,o),
(536,111,o),
(524,111,cs),
(505,111,o),
(501,127,o),
(501,136,cs),
(501,500,l),
(359,500,ls),
(350,500,o),
(346,496,o),
(346,487,cs),
(346,445,ls),
(346,436,o),
(350,432,o),
(359,432,cs),
(421,432,l),
(421,0,ls)
);
},
{
closed = 0;
nodes = (
(205,494,ls),
(205,485,o),
(209,481,o),
(218,481,cs)
);
}
);
width = 600;
},
{
associatedMasterId = m01;
layerId = "478AF311-599A-4DAF-82B5-6E8484B9D7BB";
name = "10 mars 25 à 17:37";
shapes = (
{
closed = 1;
nodes = (
(50,500,ls),
(41,500,o),
(37,496,o),
(37,487,cs),
(37,445,ls),
(37,436,o),
(41,432,o),
(50,432,cs),
(112,432,l),
(112,164,ls),
(112,53,o),
(152,-16,o),
(260,-16,cs),
(332,-16,o),
(415,45,o),
(431,149,c),
(431,207,l),
(398,89,o),
(342,52,o),
(277,52,cs),
(215,52,o),
(192,100,o),
(192,163,cs),
(192,487,ls),
(192,496,o),
(188,500,o),
(179,500,cs)
);
},
{
closed = 1;
nodes = (
(359,500,ls),
(350,500,o),
(346,496,o),
(346,487,cs),
(346,445,ls),
(346,436,o),
(350,432,o),
(359,432,cs),
(421,432,l),
(421,0,ls),
(421,-5,o),
(425,-7,o),
(431,-7,cs),
(437,-7,o),
(441,-5,o),
(448,0,cs),
(581,101,l),
(581,123,l),
(559,116,o),
(536,111,o),
(524,111,cs),
(505,111,o),
(501,127,o),
(501,136,cs),
(501,487,ls),
(501,496,o),
(497,500,o),
(488,500,cs)
);
}
);
width = 600;
}
);
unicode = 117;
},
{
glyphname = v;
lastChange = "2025-03-10 17:28:05 +0000";
layers = (
{
backgroundImage = {
imagePath = "LETTRE/v.png";
locked = 1;
pos = (-4,-64);
scale = (1.9341,1.9341);
};
layerId = m01;
shapes = (
{
closed = 1;
nodes = (
(44,500,ls),
(35,500,o),
(31,496,o),
(31,487,cs),
(31,445,ls),
(31,436,o),
(35,432,o),
(44,432,cs),
(248,432,ls),
(257,432,o),
(261,436,o),
(261,445,cs),
(261,487,ls),
(261,496,o),
(257,500,o),
(248,500,cs),
(186,500,l)
);
},
{
closed = 1;
nodes = (
(351,500,ls),
(342,500,o),
(338,496,o),
(338,487,cs),
(338,445,ls),
(338,436,o),
(342,432,o),
(351,432,cs),
(555,432,ls),
(564,432,o),
(568,436,o),
(568,445,cs),
(568,487,ls),
(568,496,o),
(564,500,o),
(555,500,cs),
(493,500,l)
);
},
{
closed = 1;
nodes = (
(499,444,l),
(486,444,o),
(459,444,o),
(429,444,c),
(297,122,l),
(183,436,l),
(102,436,l),
(256,0,l),
(321,0,l)
);
}
);
width = 600;
},
{
associatedMasterId = m01;
backgroundImage = {
imagePath = "LETTRE/v.png";
pos = (-574,-64);
scale = (1.9341,1.9341);
};
layerId = "9727F7A6-3660-4E35-B7A8-F72B757AD79D";
name = "10 mars 25 à 14:36";
shapes = (
{
closed = 1;
nodes = (
(260,432,o),
(261,433,o),
(261,440,c),
(261,457,o),
(261,475,o),
(261,492,c),
(261,499,o),
(260,500,o),
(253,500,cs),
(39,500,l),
(32,500,o),
(31,499,o),
(31,492,c),
(31,440,l),
(31,433,o),
(32,432,o),
(39,432,cs),
(253,432,l)
);
},
{
closed = 1;
nodes = (
(568,432,o),
(569,433,o),
(569,440,c),
(569,457,o),
(569,475,o),
(569,492,c),
(569,499,o),
(568,500,o),
(561,500,cs),
(347,500,l),
(340,500,o),
(339,499,o),
(339,492,c),
(339,440,l),
(339,433,o),
(340,432,o),
(347,432,cs),
(561,432,l)
);
},
{
closed = 1;
nodes = (
(287,149,l),
(293,136,o),
(301,128,o),
(310,128,cs),
(319,128,o),
(331,132,o),
(337,149,c),
(429,432,l),
(489,432,l),
(344,24,l),
(329,-16,o),
(312,-16,o),
(304,-16,cs),
(293,-16,o),
(274,-16,o),
(258,24,c),
(97,432,l),
(183,432,l)
);
}
);
width = 600;
},
{
associatedMasterId = m01;
backgroundImage = {
imagePath = "LETTRE/v.png";
locked = 1;
pos = (-4,-64);
scale = (1.9341,1.9341);
};
layerId = "C005B448-D9D6-4120-BCB0-F29E8C79CA5E";
name = "10 mars 25 à 14:53";
shapes = (
{
closed = 1;
nodes = (
(44,500,ls),
(35,500,o),
(31,496,o),
(31,487,cs),
(31,445,ls),
(31,436,o),
(35,432,o),
(44,432,cs),
(248,432,ls),
(257,432,o),
(261,436,o),
(261,445,cs),
(261,487,ls),
(261,496,o),
(257,500,o),
(248,500,cs),
(186,500,l)
);
},
{
closed = 1;
nodes = (
(351,500,ls),
(342,500,o),
(338,496,o),
(338,487,cs),
(338,445,ls),
(338,436,o),
(342,432,o),
(351,432,cs),
(555,432,ls),
(564,432,o),
(568,436,o),
(568,445,cs),
(568,487,ls),
(568,496,o),
(564,500,o),
(555,500,cs),
(493,500,l)
);
},
{
closed = 1;
nodes = (
(310,-16,o),
(314,-10,o),
(319,0,c),
(340,43,l),
(503,444,l),
(490,444,o),
(459,444,o),
(429,444,c),
(308,145,l),
(286,145,l),
(183,436,l),
(98,436,l),
(238,43,l),
(255,0,l),
(260,-13,o),
(265,-16,o),
(271,-16,cs),
(304,-16,l)
);
}
);
width = 600;
},
{
associatedMasterId = m01;
backgroundImage = {
imagePath = "LETTRE/v.png";
locked = 1;
pos = (-4,-64);
scale = (1.9341,1.9341);
};
layerId = "B527A718-1823-4F64-BF99-BB21642C159E";
name = "10 mars 25 à 14:56";
shapes = (
{
closed = 1;
nodes = (
(44,500,ls),
(35,500,o),
(31,496,o),
(31,487,cs),
(31,445,ls),
(31,436,o),
(35,432,o),
(44,432,cs),
(248,432,ls),
(257,432,o),
(261,436,o),
(261,445,cs),
(261,487,ls),
(261,496,o),
(257,500,o),
(248,500,cs),
(186,500,l)
);
},
{
closed = 1;
nodes = (
(351,500,ls),
(342,500,o),
(338,496,o),
(338,487,cs),
(338,445,ls),
(338,436,o),
(342,432,o),
(351,432,cs),
(555,432,ls),
(564,432,o),
(568,436,o),
(568,445,cs),
(568,487,ls),
(568,496,o),
(564,500,o),
(555,500,cs),
(493,500,l)
);
},
{
closed = 1;
nodes = (
(503,444,l),
(490,444,o),
(459,444,o),
(429,444,c),
(308,145,l),
(286,145,l),
(183,436,l),
(98,436,l),
(256,0,l),
(321,0,l)
);
}
);
width = 600;
}
);
unicode = 118;
},
{
glyphname = w;
lastChange = "2025-03-10 13:59:16 +0000";
layers = (
{
layerId = m01;
shapes = (
{
closed = 1;
nodes = (
(44,500,ls),
(35,500,o),
(31,496,o),
(31,487,cs),
(31,445,ls),
(31,436,o),
(35,432,o),
(44,432,cs),
(248,432,ls),
(257,432,o),
(261,436,o),
(261,445,cs),
(261,487,ls),
(261,496,o),
(257,500,o),
(248,500,cs),
(186,500,l)
);
},
{
closed = 1;
nodes = (
(357,500,ls),
(348,500,o),
(344,496,o),
(344,487,cs),
(344,445,ls),
(344,436,o),
(348,432,o),
(357,432,cs),
(561,432,ls),
(570,432,o),
(574,436,o),
(574,445,cs),
(574,487,ls),
(574,496,o),
(570,500,o),
(561,500,cs),
(499,500,l)
);
},
{
closed = 1;
nodes = (
(503,444,l),
(490,444,o),
(459,444,o),
(429,444,c),
(297,122,l),
(183,436,l),
(98,436,l),
(151,291,o),
(203,145,o),
(256,0,c),
(321,0,l)
);
},
{
closed = 1;
nodes = (
(829,444,l),
(816,444,o),
(785,444,o),
(755,444,c),
(623,122,l),
(509,436,l),
(424,436,l),
(477,291,o),
(529,145,o),
(582,0,c),
(647,0,l)
);
},
{
closed = 1;
nodes = (
(670,500,ls),
(661,500,o),
(657,496,o),
(657,487,cs),
(657,445,ls),
(657,436,o),
(661,432,o),
(670,432,cs),
(874,432,ls),
(883,432,o),
(887,436,o),
(887,445,cs),
(887,487,ls),
(887,496,o),
(883,500,o),
(874,500,cs),
(812,500,l)
);
}
);
width = 948;
},
{
associatedMasterId = m01;
layerId = "E3511B1D-92C1-4027-BB69-F6542A14DC9F";
name = "10 févr. 25 à 16:09";
shapes = (
{
closed = 1;
nodes = (
(260,432,o),
(261,433,o),
(261,440,c),
(261,457,o),
(261,475,o),
(261,492,c),
(261,499,o),
(260,500,o),
(253,500,cs),
(39,500,l),
(32,500,o),
(31,499,o),
(31,492,c),
(31,440,l),
(31,433,o),
(32,432,o),
(39,432,cs),
(253,432,l)
);
},
{
closed = 1;
nodes = (
(557,432,o),
(558,433,o),
(558,440,c),
(558,457,o),
(558,475,o),
(558,492,c),
(558,499,o),
(557,500,o),
(552,500,cs),
(389,500,l),
(384,500,o),
(383,499,o),
(383,492,c),
(383,440,l),
(383,433,o),
(384,432,o),
(389,432,cs),
(552,432,l)
);
},
{
closed = 1;
nodes = (
(287,149,l),
(293,136,o),
(303,128,o),
(312,128,cs),
(321,128,o),
(331,132,o),
(337,149,c),
(429,432,l),
(489,432,l),
(344,24,l),
(329,-16,o),
(312,-16,o),
(304,-16,cs),
(293,-16,o),
(274,-16,o),
(258,24,c),
(97,432,l),
(183,432,l)
);
},
{
closed = 1;
nodes = (
(900,432,o),
(901,433,o),
(901,440,c),
(901,457,o),
(901,475,o),
(901,492,c),
(901,499,o),
(900,500,o),
(893,500,cs),
(679,500,l),
(672,500,o),
(671,499,o),
(671,492,c),
(671,440,l),
(671,433,o),
(672,432,o),
(679,432,cs),
(893,432,l)
);
},
{
closed = 1;
nodes = (
(619,149,l),
(625,136,o),
(635,128,o),
(644,128,cs),
(653,128,o),
(663,132,o),
(669,149,c),
(761,432,l),
(821,432,l),
(676,24,l),
(661,-16,o),
(644,-16,o),
(636,-16,cs),
(625,-16,o),
(606,-16,o),
(590,24,c),
(429,432,l),
(515,432,l)
);
}
);
width = 948;
}
);
unicode = 119;
},
{
glyphname = x;
lastChange = "2025-03-10 17:29:00 +0000";
layers = (
{
backgroundImage = {
imagePath = "/Users/theoverzeletti/Desktop/Capture d’écran 2025-02-10 à 16.04.49.png";
locked = 1;
pos = (13,-47);
scale = (2.2769,2.2769);
};
layerId = m01;
shapes = (
{
closed = 1;
nodes = (
(277,432,o),
(278,433,o),
(278,440,c),
(278,457,o),
(278,475,o),
(278,492,c),
(278,499,o),
(277,500,o),
(270,500,cs),
(56,500,l),
(49,500,o),
(48,499,o),
(48,492,c),
(48,440,l),
(48,433,o),
(49,432,o),
(56,432,cs),
(270,432,l)
);
},
{
closed = 1;
nodes = (
(577,432,o),
(578,433,o),
(578,440,c),
(578,457,o),
(578,475,o),
(578,492,c),
(578,499,o),
(577,500,o),
(570,500,cs),
(365,500,l),
(359,500,o),
(358,499,o),
(358,492,c),
(358,440,l),
(358,433,o),
(359,432,o),
(365,432,cs),
(570,432,l)
);
},
{
closed = 1;
nodes = (
(349,68,o),
(348,67,o),
(348,60,c),
(348,43,o),
(348,25,o),
(348,8,c),
(348,1,o),
(349,0,o),
(356,0,cs),
(570,0,l),
(577,0,o),
(578,1,o),
(578,8,c),
(578,60,l),
(578,67,o),
(577,68,o),
(570,68,cs),
(356,68,l)
);
},
{
closed = 1;
nodes = (
(49,68,o),
(48,67,o),
(48,60,c),
(48,43,o),
(48,25,o),
(48,8,c),
(48,1,o),
(49,0,o),
(56,0,cs),
(261,0,l),
(267,0,o),
(268,1,o),
(268,8,c),
(268,60,l),
(268,67,o),
(267,68,o),
(261,68,cs),
(56,68,l)
);
},
{
closed = 1;
nodes = (
(427,68,l),
(518,68,l),
(199,432,l),
(108,432,l)
);
},
{
closed = 1;
nodes = (
(426,432,l),
(122,68,l),
(195,68,l),
(500,432,l)
);
}
);
width = 617;
},
{
associatedMasterId = m01;
backgroundImage = {
imagePath = "/Users/theoverzeletti/Desktop/Capture d’écran 2025-02-10 à 16.04.49.png";
locked = 1;
pos = (13,-47);
scale = (2.2769,2.2769);
};
layerId = "155D698F-3439-469E-9D5D-E91AA58C1B43";
name = "10 mars 25 à 18:24";
shapes = (
{
closed = 1;
nodes = (
(277,432,o),
(278,433,o),
(278,440,c),
(278,457,o),
(278,475,o),
(278,492,c),
(278,499,o),
(277,500,o),
(270,500,cs),
(56,500,l),
(49,500,o),
(48,499,o),
(48,492,c),
(48,440,l),
(48,433,o),
(49,432,o),
(56,432,cs),
(270,432,l)
);
},
{
closed = 1;
nodes = (
(577,432,o),
(578,433,o),
(578,440,c),
(578,457,o),
(578,475,o),
(578,492,c),
(578,499,o),
(577,500,o),
(570,500,cs),
(365,500,l),
(359,500,o),
(358,499,o),
(358,492,c),
(358,440,l),
(358,433,o),
(359,432,o),
(365,432,cs),
(570,432,l)
);
},
{
closed = 1;
nodes = (
(349,68,o),
(348,67,o),
(348,60,c),
(348,43,o),
(348,25,o),
(348,8,c),
(348,1,o),
(349,0,o),
(356,0,cs),
(570,0,l),
(577,0,o),
(578,1,o),
(578,8,c),
(578,60,l),
(578,67,o),
(577,68,o),
(570,68,cs),
(356,68,l)
);
},
{
closed = 1;
nodes = (
(49,68,o),
(48,67,o),
(48,60,c),
(48,43,o),
(48,25,o),
(48,8,c),
(48,1,o),
(49,0,o),
(56,0,cs),
(261,0,l),
(267,0,o),
(268,1,o),
(268,8,c),
(268,60,l),
(268,67,o),
(267,68,o),
(261,68,cs),
(56,68,l)
);
},
{
closed = 1;
nodes = (
(419,68,l),
(531,68,l),
(212,432,l),
(100,432,l)
);
},
{
closed = 1;
nodes = (
(420,432,l),
(115,68,l),
(195,68,l),
(500,432,l)
);
}
);
width = 617;
}
);
unicode = 120;
},
{
glyphname = y;
lastChange = "2025-03-10 17:13:34 +0000";
layers = (
{
backgroundImage = {
imagePath = "LETTRE/y.png";
locked = 1;
pos = (-4,-265);
scale = (2.0853,2.0853);
};
layerId = m01;
shapes = (
{
closed = 1;
nodes = (
(44,500,ls),
(35,500,o),
(31,496,o),
(31,487,cs),
(31,445,ls),
(31,436,o),
(35,432,o),
(44,432,cs),
(248,432,ls),
(257,432,o),
(261,436,o),
(261,445,cs),
(261,487,ls),
(261,496,o),
(257,500,o),
(248,500,cs),
(186,500,l)
);
},
{
closed = 1;
nodes = (
(351,500,ls),
(342,500,o),
(338,496,o),
(338,487,cs),
(338,445,ls),
(338,436,o),
(342,432,o),
(351,432,cs),
(555,432,ls),
(564,432,o),
(568,436,o),
(568,445,cs),
(568,487,ls),
(568,496,o),
(564,500,o),
(555,500,cs),
(493,500,l)
);
},
{
closed = 1;
nodes = (
(183,436,l),
(95,436,l),
(288,41,l),
(361,75,l)
);
},
{
closed = 1;
nodes = (
(231,-119,o),
(186,-119,c),
(163,-119,o),
(136,-83,o),
(124,-90,cs),
(113,-97,o),
(95,-157,o),
(95,-165,cs),
(95,-176,o),
(114,-217,o),
(197,-217,cs),
(280,-217,o),
(353,19,o),
(359,48,cs),
(366,82,o),
(446,299,o),
(503,444,c),
(490,444,o),
(459,444,o),
(429,444,c),
(276,19,o)
);
}
);
width = 600;
},
{
associatedMasterId = m01;
layerId = "EBC2A96E-52C0-44A4-A830-8342A7D60BEA";
name = "10 mars 25 à 15:58";
shapes = (
{
closed = 1;
nodes = (
(44,500,ls),
(35,500,o),
(31,496,o),
(31,487,cs),
(31,445,ls),
(31,436,o),
(35,432,o),
(44,432,cs),
(248,432,ls),
(257,432,o),
(261,436,o),
(261,445,cs),
(261,487,ls),
(261,496,o),
(257,500,o),
(248,500,cs),
(186,500,l)
);
},
{
closed = 1;
nodes = (
(351,500,ls),
(342,500,o),
(338,496,o),
(338,487,cs),
(338,445,ls),
(338,436,o),
(342,432,o),
(351,432,cs),
(555,432,ls),
(564,432,o),
(568,436,o),
(568,445,cs),
(568,487,ls),
(568,496,o),
(564,500,o),
(555,500,cs),
(493,500,l)
);
},
{
closed = 1;
nodes = (
(503,444,l),
(490,444,o),
(459,444,o),
(429,444,c),
(297,122,l),
(183,436,l),
(98,436,l),
(256,0,l),
(321,0,l)
);
}
);
width = 600;
},
{
associatedMasterId = m01;
layerId = "4CF3551F-4737-4F5F-BDBF-B7943F7F7A13";
name = "10 mars 25 à 16:00";
shapes = (
{
closed = 1;
nodes = (
(44,500,ls),
(35,500,o),
(31,496,o),
(31,487,cs),
(31,445,ls),
(31,436,o),
(35,432,o),
(44,432,cs),
(248,432,ls),
(257,432,o),
(261,436,o),
(261,445,cs),
(261,487,ls),
(261,496,o),
(257,500,o),
(248,500,cs),
(186,500,l)
);
},
{
closed = 1;
nodes = (
(351,500,ls),
(342,500,o),
(338,496,o),
(338,487,cs),
(338,445,ls),
(338,436,o),
(342,432,o),
(351,432,cs),
(555,432,ls),
(564,432,o),
(568,436,o),
(568,445,cs),
(568,487,ls),
(568,496,o),
(564,500,o),
(555,500,cs),
(493,500,l)
);
},
{
closed = 1;
nodes = (
(503,444,l),
(490,444,o),
(459,444,o),
(429,444,c),
(297,122,l),
(183,436,l),
(98,436,l),
(256,0,l),
(321,0,l)
);
},
{
closed = 0;
nodes = (
(195,-32,ls),
(195,-110,o),
(155,-154,o),
(135,-151,c),
(129,-67,o),
(44,-90,o),
(30,-123,cs),
(18,-151,o),
(22,-216,o),
(135,-216,cs),
(230,-216,o),
(275,-138,o),
(275,-32,cs)
);
}
);
width = 600;
}
);
unicode = 121;
},
{
glyphname = z;
lastChange = "2025-03-11 15:16:58 +0000";
layers = (
{
backgroundImage = {
imagePath = "LETTRE/z.png";
locked = 1;
pos = (-12,-95);
scale = (5.6621,5.6621);
};
layerId = m01;
shapes = (
{
closed = 1;
nodes = (
(438,478,l),
(134,68,l),
(235,68,o),
(315,68,o),
(355,68,c),
(382,68,o),
(387,68,o),
(394,94,c),
(399,94,o),
(411,94,o),
(416,94,c),
(395,-16,l),
(374,-16,l),
(377,0,o),
(374,0,o),
(354,0,c),
(49,0,ls),
(40,0,o),
(36,4,o),
(36,13,cs),
(36,42,l),
(123,167,o),
(233,307,o),
(320,432,c),
(138,432,l),
(111,432,o),
(106,432,o),
(99,406,c),
(94,406,o),
(82,406,o),
(77,406,c),
(102,516,l),
(123,516,l),
(120,500,o),
(123,500,o),
(143,500,c),
(425,500,ls),
(434,500,o),
(438,496,o),
(438,487,cs)
);
}
);
width = 483;
},
{
associatedMasterId = m01;
backgroundImage = {
imagePath = "LETTRE/z.png";
locked = 1;
pos = (34,-95);
scale = (5.6621,5.6621);
};
layerId = "D77D0A3A-5005-40EF-B741-E5C1295D04E6";
name = "10 mars 25 à 18:03";
shapes = (
{
closed = 0;
nodes = (
(354,415,l),
(253,415,o),
(233,415,o),
(193,415,c),
(173,415,o),
(169,415,o),
(134,329,c),
(129,329,o),
(117,329,o),
(112,329,c),
(165,516,l),
(186,516,l),
(181,500,o),
(186,500,o),
(206,500,c),
(494,500,l)
);
},
{
closed = 0;
nodes = (
(252,85,l),
(353,85,o),
(373,85,o),
(413,85,c),
(433,85,o),
(437,85,o),
(472,171,c),
(477,171,o),
(489,171,o),
(494,171,c),
(441,-16,l),
(420,-16,l),
(425,0,o),
(420,0,o),
(400,0,c),
(112,0,l)
);
}
);
width = 600;
},
{
associatedMasterId = m01;
backgroundImage = {
imagePath = "LETTRE/z.png";
locked = 1;
pos = (34,-95);
scale = (5.6621,5.6621);
};
layerId = "6335C2F6-DD2E-4FBF-93A6-72A2A568FF97";
name = "10 mars 25 à 18:04";
shapes = (
{
closed = 1;
nodes = (
(206,500,l),
(186,500,o),
(181,500,o),
(186,516,c),
(165,516,l),
(112,329,l),
(117,329,o),
(129,329,o),
(134,329,c),
(169,415,o),
(173,415,o),
(193,415,c),
(233,415,o),
(243,415,o),
(344,415,c),
(82,0,l),
(400,0,l),
(420,0,o),
(425,0,o),
(420,-16,c),
(441,-16,l),
(494,171,l),
(489,171,o),
(477,171,o),
(472,171,c),
(437,85,o),
(433,85,o),
(413,85,c),
(373,85,o),
(323,85,o),
(222,85,c),
(484,500,l)
);
}
);
width = 600;
},
{
associatedMasterId = m01;
backgroundImage = {
imagePath = "LETTRE/z.png";
locked = 1;
pos = (34,-95);
scale = (5.6621,5.6621);
};
layerId = "A49E9665-4960-4CF1-BE28-43F00D4A235C";
name = "10 mars 25 à 18:09";
shapes = (
{
closed = 1;
nodes = (
(159,417,o),
(154,417,o),
(147,391,c),
(142,391,o),
(130,391,o),
(125,391,c),
(148,516,l),
(169,516,l),
(166,500,o),
(169,500,o),
(189,500,c),
(484,500,l),
(222,83,l),
(323,83,o),
(363,83,o),
(403,83,c),
(430,83,o),
(435,83,o),
(442,109,c),
(447,109,o),
(459,109,o),
(464,109,c),
(441,-16,l),
(420,-16,l),
(423,0,o),
(420,0,o),
(400,0,c),
(82,0,l),
(344,417,l),
(186,417,l)
);
}
);
width = 600;
},
{
associatedMasterId = m01;
backgroundImage = {
imagePath = "LETTRE/z.png";
locked = 1;
pos = (34,-95);
scale = (5.6621,5.6621);
};
layerId = "2C3484EF-6560-4935-AA31-FDC5E4F5EB29";
name = "10 mars 25 à 18:10";
shapes = (
{
closed = 1;
nodes = (
(159,417,o),
(154,417,o),
(147,391,c),
(142,391,o),
(130,391,o),
(125,391,c),
(148,516,l),
(169,516,l),
(166,500,o),
(169,500,o),
(189,500,c),
(484,500,l),
(484,478,l),
(222,83,l),
(323,83,o),
(363,83,o),
(403,83,c),
(430,83,o),
(435,83,o),
(442,109,c),
(447,109,o),
(459,109,o),
(464,109,c),
(441,-16,l),
(420,-16,l),
(423,0,o),
(420,0,o),
(400,0,c),
(82,0,l),
(82,42,l),
(169,167,o),
(257,292,o),
(344,417,c),
(186,417,l)
);
}
);
width = 600;
}
);
unicode = 122;
},
{
glyphname = zero.osf;
lastChange = "2025-03-11 15:55:44 +0000";
layers = (
{
layerId = m01;
shapes = (
{
closed = 1;
nodes = (
(442,-16,o),
(506,89,o),
(506,249,cs),
(506,403,o),
(420,516,o),
(266,516,cs),
(106,516,o),
(38,407,o),
(38,247,cs),
(38,93,o),
(130,-16,o),
(281,-16,cs)
);
},
{
closed = 1;
nodes = (
(202,56,o),
(120,116,o),
(120,273,cs),
(120,367,o),
(164,444,o),
(254,444,cs),
(342,444,o),
(423,375,o),
(423,227,cs),
(423,134,o),
(386,56,o),
(291,56,cs)
);
}
);
width = 564;
}
);
},
{
glyphname = one.osf;
lastChange = "2025-03-11 15:52:40 +0000";
layers = (
{
layerId = m01;
shapes = (
{
closed = 1;
nodes = (
(416,432,ls),
(425,432,o),
(429,436,o),
(429,445,cs),
(429,487,ls),
(429,496,o),
(425,500,o),
(416,500,cs),
(212,500,ls),
(203,500,o),
(199,496,o),
(199,487,cs),
(199,445,ls),
(199,436,o),
(203,432,o),
(212,432,cs),
(274,432,l),
(274,68,l),
(212,68,ls),
(203,68,o),
(199,64,o),
(199,55,cs),
(199,13,ls),
(199,4,o),
(203,0,o),
(212,0,cs),
(416,0,ls),
(425,0,o),
(429,4,o),
(429,13,cs),
(429,55,ls),
(429,64,o),
(425,68,o),
(416,68,cs),
(354,68,l),
(354,432,l)
);
}
);
width = 475;
}
);
},
{
glyphname = two.osf;
lastChange = "2025-03-11 15:39:55 +0000";
layers = (
{
layerId = m01;
shapes = (
{
closed = 1;
nodes = (
(253,68,l),
(354,68,o),
(388,68,o),
(428,68,c),
(455,68,o),
(460,68,o),
(467,94,c),
(472,94,o),
(484,94,o),
(489,94,c),
(468,-16,l),
(447,-16,l),
(450,0,o),
(447,0,o),
(427,0,c),
(122,0,ls),
(113,0,o),
(109,4,o),
(109,13,cs),
(109,42,l),
(368,243,o),
(104,42,o),
(363,243,c),
(422,293,o),
(428,338,o),
(423,373,cs),
(412,457,o),
(225,516,o),
(173,376,c),
(163,346,o),
(141,338,o),
(120,346,cs),
(96,354,o),
(90,390,o),
(101,408,cs),
(200,578,o),
(463,525,o),
(500,404,cs),
(523,328,o),
(500,265,o),
(394,181,c)
);
}
);
width = 600;
}
);
},
{
glyphname = three.osf;
lastChange = "2025-03-11 15:45:46 +0000";
layers = (
{
layerId = m01;
shapes = (
{
closed = 0;
nodes = (
(423,127,l),
(412,43,o),
(225,-16,o),
(173,124,c),
(163,154,o),
(141,162,o),
(120,154,cs),
(96,146,o),
(90,110,o),
(101,92,cs),
(200,-78,o),
(463,-25,o),
(500,96,c)
);
},
{
closed = 0;
nodes = (
(500,589,l),
(463,710,o),
(200,763,o),
(101,593,cs),
(90,575,o),
(96,539,o),
(120,531,cs),
(141,523,o),
(163,531,o),
(173,561,c),
(225,701,o),
(409,644,o),
(423,558,c)
);
}
);
width = 600;
}
);
},
{
glyphname = four.osf;
lastChange = "2025-03-11 15:21:20 +0000";
layers = (
{
backgroundImage = {
imagePath = "CHIFFRE/4.png";
locked = 1;
pos = (68,-26);
scale = (1.5085,1.5085);
};
layerId = m01;
shapes = (
{
closed = 1;
nodes = (
(366,500,ls),
(366,505,o),
(362,507,o),
(356,507,cs),
(332,507,l),
(326,507,o),
(321,507,o),
(315,500,cs),
(102,240,l),
(89,223,o),
(86,219,o),
(86,209,c),
(86,165,ls),
(86,156,o),
(90,152,o),
(99,152,cs),
(436,152,l),
(436,246,l),
(431,246,o),
(419,246,o),
(414,246,c),
(407,220,o),
(402,213,o),
(375,213,c),
(335,213,o),
(239,213,o),
(138,213,c),
(273,377,l),
(282,386,o),
(286,373,o),
(286,364,cs),
(286,13,ls),
(286,4,o),
(290,0,o),
(299,0,cs),
(353,0,ls),
(362,0,o),
(366,4,o),
(366,13,cs)
);
}
);
width = 600;
},
{
associatedMasterId = m01;
backgroundImage = {
imagePath = "CHIFFRE/4.png";
locked = 1;
pos = (68,-26);
scale = (1.5085,1.5085);
};
layerId = "999265C3-6745-4F65-8D19-26E84D054A56";
name = "11 mars 25 à 16:20";
shapes = (
{
closed = 0;
nodes = (
(116,245,l),
(111,245,o),
(109,241,o),
(109,235,cs),
(109,229,o),
(111,225,o),
(116,218,cs)
);
},
{
closed = 1;
nodes = (
(366,500,ls),
(366,505,o),
(362,507,o),
(356,507,cs),
(332,507,l),
(326,507,o),
(321,507,o),
(315,500,cs),
(102,250,l),
(85,235,o),
(86,229,o),
(86,219,c),
(86,165,ls),
(86,156,o),
(90,152,o),
(99,152,cs),
(374,152,l),
(394,152,o),
(397,152,o),
(394,136,c),
(415,136,l),
(436,246,l),
(431,246,o),
(419,246,o),
(414,246,c),
(407,220,o),
(402,220,o),
(375,220,c),
(335,220,o),
(257,220,o),
(156,220,c),
(273,377,l),
(282,386,o),
(286,373,o),
(286,364,cs),
(286,13,ls),
(286,4,o),
(290,0,o),
(299,0,cs),
(353,0,ls),
(362,0,o),
(366,4,o),
(366,13,cs)
);
}
);
width = 600;
}
);
},
{
glyphname = five.osf;
lastChange = "2025-03-11 15:34:07 +0000";
layers = (
{
backgroundImage = {
imagePath = "CHIFFRE/5.png";
locked = 1;
pos = (218,-35);
scale = (1.4835,1.4835);
};
layerId = m01;
shapes = (
{
closed = 1;
nodes = (
(275,513,o),
(271,487,o),
(464,499,c),
(476,500,o),
(503,498,o),
(503,516,c),
(508,516,o),
(520,516,o),
(525,516,c),
(525,439,l),
(313,439,l),
(306,396,l),
(369,377,o),
(508,352,o),
(508,200,cs),
(508,48,o),
(341,0,o),
(265,0,cs),
(251,0,o),
(243,8,o),
(243,27,c),
(243,41,o),
(246,52,o),
(262,54,cs),
(284,57,o),
(425,107,o),
(425,187,cs),
(425,267,o),
(376,329,o),
(243,329,c),
(230,329,o),
(234,338,o),
(271,488,c)
);
}
);
width = 600;
}
);
},
{
glyphname = six.osf;
lastChange = "2025-03-11 15:56:32 +0000";
layers = (
{
layerId = m01;
shapes = (
{
closed = 1;
nodes = (
(120,678,o),
(349,635,o),
(369,632,c),
(385,631,o),
(400,627,o),
(414,620,c),
(442,606,o),
(463,616,o),
(472,636,cs),
(484,659,o),
(462,688,o),
(442,694,cs),
(422,700,o),
(389,700,o),
(369,700,cs),
(293,700,o),
(38,685,o),
(38,259,c),
(120,280,l)
);
},
{
closed = 1;
nodes = (
(442,-16,o),
(506,89,o),
(506,249,cs),
(506,403,o),
(420,516,o),
(266,516,cs),
(106,516,o),
(38,407,o),
(38,247,cs),
(38,93,o),
(130,-16,o),
(281,-16,cs)
);
},
{
closed = 1;
nodes = (
(202,56,o),
(120,116,o),
(120,273,cs),
(120,367,o),
(164,444,o),
(254,444,cs),
(342,444,o),
(423,375,o),
(423,227,cs),
(423,134,o),
(386,56,o),
(291,56,cs)
);
}
);
width = 600;
},
{
associatedMasterId = m01;
layerId = "D51BAE19-BDAC-4352-A1FE-6B42402C16C9";
name = "11 mars 25 à 16:49";
shapes = (
{
closed = 0;
nodes = (
(62,429,l),
(62,569,o),
(145,700,o),
(280,700,cs),
(354,700,o),
(419,656,o),
(460,592,cs),
(471,574,o),
(465,538,o),
(441,530,cs),
(420,522,o),
(398,530,o),
(388,560,c),
(371,606,o),
(327,640,o),
(268,640,cs),
(181,640,o),
(145,564,o),
(145,458,c)
);
},
{
closed = 1;
nodes = (
(-178,91,o),
(-111,175,o),
(-111,269,cs),
(-111,365,o),
(-193,448,o),
(-296,448,cs),
(-403,448,o),
(-473,361,o),
(-473,267,cs),
(-473,171,o),
(-387,91,o),
(-286,91,cs)
);
},
{
closed = 1;
nodes = (
(-339,146,o),
(-390,199,o),
(-390,285,cs),
(-390,348,o),
(-365,393,o),
(-304,393,cs),
(-245,393,o),
(-194,340,o),
(-194,254,cs),
(-194,191,o),
(-215,146,o),
(-279,146,cs)
);
},
{
closed = 1;
nodes = (
(428,-16,o),
(507,109,o),
(507,249,cs),
(507,392,o),
(408,516,o),
(281,516,cs),
(146,516,o),
(63,387,o),
(63,247,cs),
(63,104,o),
(166,-16,o),
(293,-16,cs)
);
},
{
closed = 1;
nodes = (
(218,44,o),
(146,132,o),
(146,276,cs),
(146,382,o),
(182,456,o),
(269,456,cs),
(352,456,o),
(424,368,o),
(424,224,cs),
(424,118,o),
(392,44,o),
(305,44,cs)
);
}
);
width = 600;
},
{
associatedMasterId = m01;
layerId = "13583608-CAF4-4C7F-B1FE-6E1A171FBF40";
name = "11 mars 25 à 16:56";
shapes = (
{
closed = 1;
nodes = (
(-178,91,o),
(-111,175,o),
(-111,269,cs),
(-111,365,o),
(-193,448,o),
(-296,448,cs),
(-403,448,o),
(-473,361,o),
(-473,267,cs),
(-473,171,o),
(-387,91,o),
(-286,91,cs)
);
},
{
closed = 1;
nodes = (
(-339,146,o),
(-390,199,o),
(-390,285,cs),
(-390,348,o),
(-365,393,o),
(-304,393,cs),
(-245,393,o),
(-194,340,o),
(-194,254,cs),
(-194,191,o),
(-215,146,o),
(-279,146,cs)
);
},
{
closed = 1;
nodes = (
(428,-16,o),
(507,109,o),
(507,249,cs),
(507,392,o),
(408,516,o),
(281,516,cs),
(146,516,o),
(63,387,o),
(63,247,cs),
(63,104,o),
(166,-16,o),
(293,-16,cs)
);
},
{
closed = 1;
nodes = (
(218,44,o),
(146,132,o),
(146,276,cs),
(146,382,o),
(182,456,o),
(269,456,cs),
(352,456,o),
(424,368,o),
(424,224,cs),
(424,118,o),
(392,44,o),
(305,44,cs)
);
},
{
closed = 1;
nodes = (
(146,678,o),
(375,635,o),
(395,632,c),
(411,631,o),
(426,627,o),
(440,620,c),
(468,606,o),
(489,616,o),
(498,636,cs),
(510,659,o),
(488,688,o),
(468,694,cs),
(448,700,o),
(415,700,o),
(395,700,cs),
(319,700,o),
(63,685,o),
(63,259,c),
(146,280,l)
);
}
);
width = 600;
}
);
},
{
glyphname = seven.osf;
lastChange = "2025-03-11 15:26:32 +0000";
layers = (
{
backgroundImage = {
imagePath = "CHIFFRE/7.png";
locked = 1;
pos = (142,-74);
scale = (4.8918,4.8918);
};
layerId = m01;
shapes = (
{
closed = 1;
nodes = (
(357,152,o),
(468,402,o),
(468,478,cs),
(468,487,ls),
(468,496,o),
(464,500,o),
(455,500,cs),
(243,500,l),
(223,500,o),
(220,500,o),
(223,516,c),
(202,516,l),
(177,406,l),
(182,406,o),
(194,406,o),
(199,406,c),
(206,432,o),
(211,432,o),
(238,432,c),
(415,432,l),
(358,333,o),
(301,153,o),
(264,63,cs),
(243,12,o),
(261,0,o),
(282,0,cs),
(304,0,o),
(318,-2,o),
(324,17,cs)
);
}
);
width = 600;
}
);
},
{
glyphname = nine.osf;
lastChange = "2025-03-11 15:57:09 +0000";
layers = (
{
layerId = m01;
shapes = (
{
closed = 1;
nodes = (
(429,-178,o),
(200,-135,o),
(180,-132,c),
(164,-131,o),
(149,-127,o),
(135,-120,c),
(107,-106,o),
(86,-116,o),
(77,-136,cs),
(65,-159,o),
(87,-188,o),
(107,-194,cs),
(127,-200,o),
(160,-200,o),
(180,-200,cs),
(256,-200,o),
(511,-185,o),
(511,241,c),
(429,220,l)
);
},
{
closed = 1;
nodes = (
(107,516,o),
(43,411,o),
(43,251,cs),
(43,97,o),
(129,-16,o),
(283,-16,cs),
(443,-16,o),
(511,93,o),
(511,253,cs),
(511,407,o),
(419,516,o),
(268,516,cs)
);
},
{
closed = 1;
nodes = (
(347,444,o),
(429,384,o),
(429,227,cs),
(429,133,o),
(385,56,o),
(295,56,cs),
(207,56,o),
(126,125,o),
(126,273,cs),
(126,366,o),
(163,444,o),
(258,444,cs)
);
}
);
width = 600;
}
);
},
{
glyphname = period;
lastChange = "2025-03-11 16:10:19 +0000";
layers = (
{
layerId = m01;
shapes = (
{
closed = 1;
nodes = (
(232,56,o),
(195,50,o),
(180,32,cs),
(166,16,o),
(162,-16,o),
(141,-16,cs),
(120,-16,o),
(115,24,o),
(98,40,cs),
(82,53,o),
(52,58,o),
(52,80,cs),
(52,102,o),
(90,107,o),
(104,125,cs),
(118,141,o),
(122,173,o),
(143,173,cs),
(164,173,o),
(169,133,o),
(186,118,cs),
(202,104,o),
(232,99,o),
(232,77,cs)
);
}
);
width = 450;
}
);
unicode = 46;
},
{
glyphname = colon;
lastChange = "2025-03-11 16:35:27 +0000";
layers = (
{
layerId = m01;
shapes = (
{
closed = 1;
nodes = (
(279,56,o),
(242,50,o),
(227,32,cs),
(213,16,o),
(209,-16,o),
(188,-16,cs),
(167,-16,o),
(162,24,o),
(145,40,cs),
(129,53,o),
(99,58,o),
(99,80,cs),
(99,102,o),
(137,107,o),
(151,125,cs),
(165,141,o),
(169,173,o),
(190,173,cs),
(211,173,o),
(216,133,o),
(233,118,cs),
(249,104,o),
(279,99,o),
(279,77,cs)
);
},
{
closed = 1;
nodes = (
(279,351,o),
(242,345,o),
(227,327,cs),
(213,311,o),
(209,279,o),
(188,279,cs),
(167,279,o),
(162,319,o),
(144,334,cs),
(129,348,o),
(99,353,o),
(99,375,cs),
(99,397,o),
(137,402,o),
(152,420,cs),
(165,436,o),
(169,468,o),
(190,468,cs),
(211,468,o),
(216,428,o),
(233,413,cs),
(249,399,o),
(279,394,o),
(279,372,cs)
);
}
);
width = 324;
}
);
unicode = 58;
},
{
glyphname = ellipsis;
lastChange = "2025-03-11 16:29:03 +0000";
layers = (
{
layerId = m01;
shapes = (
{
closed = 1;
nodes = (
(192,56,o),
(155,50,o),
(140,32,cs),
(126,16,o),
(122,-16,o),
(101,-16,cs),
(80,-16,o),
(75,24,o),
(58,40,cs),
(42,53,o),
(12,58,o),
(12,80,cs),
(12,102,o),
(50,107,o),
(64,125,cs),
(78,141,o),
(82,173,o),
(103,173,cs),
(124,173,o),
(129,133,o),
(146,118,cs),
(162,104,o),
(192,99,o),
(192,77,cs)
);
},
{
closed = 1;
nodes = (
(396,56,o),
(359,50,o),
(344,32,cs),
(330,16,o),
(326,-16,o),
(305,-16,cs),
(284,-16,o),
(279,24,o),
(262,39,cs),
(246,53,o),
(216,58,o),
(216,80,cs),
(216,102,o),
(254,107,o),
(269,125,cs),
(282,141,o),
(286,173,o),
(307,173,cs),
(328,173,o),
(333,133,o),
(350,118,cs),
(366,104,o),
(396,99,o),
(396,77,c)
);
},
{
closed = 1;
nodes = (
(600,56,o),
(563,50,o),
(548,32,cs),
(534,16,o),
(530,-16,o),
(509,-16,cs),
(488,-16,o),
(483,24,o),
(466,39,cs),
(450,53,o),
(420,58,o),
(420,80,cs),
(420,102,o),
(458,107,o),
(473,125,cs),
(486,141,o),
(490,173,o),
(511,173,cs),
(532,173,o),
(537,133,o),
(554,118,cs),
(570,104,o),
(600,99,o),
(600,77,cs)
);
}
);
width = 600;
}
);
unicode = 8230;
},
{
glyphname = exclam;
lastChange = "2025-03-11 16:54:27 +0000";
layers = (
{
backgroundImage = {
imagePath = "GLYPH/AUTRE/!.png";
locked = 1;
pos = (67,-34);
scale = (4.091,4.091);
};
layerId = m01;
shapes = (
{
closed = 1;
nodes = (
(138,507,o),
(165,359,o),
(165,238,c),
(165,227,o),
(168,212,o),
(194,212,cs),
(213,212,o),
(219,226,o),
(219,238,c),
(219,438,o),
(255,683,o),
(255,703,cs),
(255,721,o),
(219,704,o),
(180,680,cs),
(152,663,o),
(124,654,o),
(124,641,cs)
);
},
{
closed = 1;
nodes = (
(285,56,o),
(248,50,o),
(233,32,cs),
(219,16,o),
(215,-16,o),
(194,-16,cs),
(173,-16,o),
(168,24,o),
(151,40,cs),
(135,53,o),
(105,58,o),
(105,80,cs),
(105,102,o),
(143,107,o),
(157,125,cs),
(171,141,o),
(175,173,o),
(196,173,cs),
(217,173,o),
(222,133,o),
(239,118,cs),
(255,104,o),
(285,99,o),
(285,77,cs)
);
}
);
width = 400;
}
);
unicode = 33;
},
{
glyphname = question;
lastChange = "2025-03-11 16:13:57 +0000";
layers = (
{
backgroundImage = {
imagePath = "GLYPH/AUTRE/?.png";
locked = 1;
pos = (91,-40);
scale = (3.2457,3.2457);
};
layerId = m01;
shapes = (
{
closed = 1;
nodes = (
(386,56,o),
(349,50,o),
(334,32,cs),
(320,16,o),
(316,-16,o),
(295,-16,cs),
(274,-16,o),
(269,24,o),
(252,40,cs),
(236,53,o),
(206,58,o),
(206,80,cs),
(206,102,o),
(244,107,o),
(258,125,cs),
(272,141,o),
(276,173,o),
(297,173,cs),
(318,173,o),
(323,133,o),
(340,118,cs),
(356,104,o),
(386,99,o),
(386,77,cs)
);
},
{
closed = 1;
nodes = (
(269,273,o),
(259,289,o),
(259,315,cs),
(259,408,o),
(477,424,o),
(477,556,cs),
(477,650,o),
(410,716,o),
(303,716,cs),
(220,716,o),
(133,685,o),
(133,572,cs),
(133,539,o),
(224,545,o),
(224,587,c),
(224,635,o),
(240,662,o),
(308,662,cs),
(376,662,o),
(401,624,o),
(401,585,cs),
(401,483,o),
(183,483,o),
(183,315,cs),
(183,220,o),
(270,220,o),
(278,220,cs),
(310,220,o),
(410,239,o),
(410,283,cs),
(410,297,o),
(374,322,o),
(353,315,cs),
(335,309,o),
(336,273,o),
(291,273,cs)
);
}
);
width = 600;
}
);
unicode = 63;
},
{
glyphname = hyphen;
lastChange = "2025-03-11 16:39:37 +0000";
layers = (
{
backgroundImage = {
imagePath = "GLYPH/AUTRE/-.png";
locked = 1;
pos = (15,130);
scale = (3.1918,3.1918);
};
layerId = m01;
shapes = (
{
closed = 1;
nodes = (
(472,287,l),
(502,287,o),
(477,180,o),
(447,180,cs),
(396,180,o),
(81,180,o),
(81,180,cs),
(51,180,o),
(77,287,o),
(107,287,cs)
);
}
);
width = 615;
}
);
unicode = 45;
},
{
glyphname = endash;
lastChange = "2025-03-11 16:42:15 +0000";
layers = (
{
layerId = m01;
shapes = (
{
closed = 1;
nodes = (
(472,287,l),
(502,287,o),
(477,180,o),
(447,180,cs),
(396,180,o),
(81,180,o),
(81,180,cs),
(51,180,o),
(77,287,o),
(107,287,cs)
);
}
);
width = 600;
}
);
unicode = 8211;
},
{
glyphname = parenleft;
lastChange = "2025-03-11 16:28:12 +0000";
layers = (
{
layerId = m01;
shapes = (
{
closed = 1;
nodes = (
(96,412,o),
(95,371,o),
(284,11,c),
(327,-54,o),
(363,19,o),
(344,54,c),
(200,343,o),
(198,406,o),
(344,645,c),
(363,678,o),
(327,754,o),
(284,688,cs)
);
}
);
width = 600;
}
);
unicode = 40;
},
{
glyphname = parenright;
lastChange = "2025-03-11 16:28:32 +0000";
layers = (
{
layerId = m01;
shapes = (
{
closed = 1;
nodes = (
(83,754,o),
(47,678,o),
(66,645,c),
(212,406,o),
(210,343,o),
(66,54,c),
(47,19,o),
(83,-54,o),
(126,11,c),
(315,371,o),
(314,412,o),
(126,688,cs)
);
}
);
width = 334;
}
);
unicode = 41;
},
{
glyphname = quotesinglbase;
lastChange = "2025-03-11 16:20:54 +0000";
layers = (
{
backgroundImage = {
imagePath = "GLYPH/AUTRE/,.png";
pos = (-2,-177);
scale = (1.8517,1.8517);
};
layerId = m01;
shapes = (
{
closed = 1;
nodes = (
(235,56,o),
(198,50,o),
(183,32,cs),
(169,16,o),
(165,-16,o),
(144,-16,cs),
(123,-16,o),
(118,24,o),
(101,40,cs),
(85,53,o),
(55,58,o),
(55,80,cs),
(55,102,o),
(93,107,o),
(107,125,cs),
(121,141,o),
(125,173,o),
(146,173,cs),
(167,173,o),
(172,133,o),
(189,118,cs),
(205,104,o),
(235,99,o),
(235,77,cs)
);
},
{
closed = 1;
nodes = (
(70,-41,o),
(156,-26,o),
(101,40,c),
(232,67,l),
(196,25,o),
(188,11,o),
(172,-26,cs),
(161,-52,o),
(122,-103,o),
(94,-118,cs),
(57,-138,o),
(26,-113,o),
(48,-81,cs)
);
}
);
width = 321;
}
);
unicode = 8218;
},
{
glyphname = quoteleft;
lastChange = "2025-03-11 16:24:12 +0000";
layers = (
{
layerId = m01;
shapes = (
{
closed = 1;
nodes = (
(406,599,o),
(369,593,o),
(354,575,cs),
(340,559,o),
(336,527,o),
(315,527,cs),
(294,527,o),
(289,567,o),
(272,583,cs),
(256,596,o),
(226,601,o),
(226,623,cs),
(226,645,o),
(264,650,o),
(278,668,cs),
(292,684,o),
(296,716,o),
(317,716,cs),
(338,716,o),
(343,676,o),
(360,661,cs),
(376,647,o),
(406,642,o),
(406,620,cs)
);
},
{
closed = 1;
nodes = (
(241,502,o),
(327,517,o),
(272,583,c),
(403,610,l),
(353,559,o),
(363,551,o),
(343,517,cs),
(328,491,o),
(293,440,o),
(265,425,cs),
(228,405,o),
(197,430,o),
(219,462,cs)
);
}
);
width = 600;
}
);
unicode = 8216;
},
{
glyphname = quoteright;
lastChange = "2025-03-11 16:24:33 +0000";
layers = (
{
layerId = m01;
shapes = (
{
closed = 1;
nodes = (
(406,599,o),
(369,593,o),
(354,575,cs),
(340,559,o),
(336,527,o),
(315,527,cs),
(294,527,o),
(289,567,o),
(272,583,cs),
(256,596,o),
(226,601,o),
(226,623,cs),
(226,645,o),
(264,650,o),
(278,668,cs),
(292,684,o),
(296,716,o),
(317,716,cs),
(338,716,o),
(343,676,o),
(360,661,cs),
(376,647,o),
(406,642,o),
(406,620,cs)
);
},
{
closed = 1;
nodes = (
(241,502,o),
(327,517,o),
(272,583,c),
(403,610,l),
(353,559,o),
(363,551,o),
(343,517,cs),
(328,491,o),
(293,440,o),
(265,425,cs),
(228,405,o),
(197,430,o),
(219,462,cs)
);
}
);
width = 600;
}
);
unicode = 8217;
},
{
glyphname = guillemetleft;
lastChange = "2025-03-11 16:18:24 +0000";
layers = (
{
backgroundImage = {
imagePath = "GLYPH/AUTRE/\".png";
locked = 1;
pos = (46,-33);
scale = (2.2803,2.2803);
};
layerId = m01;
shapes = (
{
closed = 1;
nodes = (
(76,223,o),
(91,202,o),
(228,3,cs),
(259,-44,o),
(286,9,o),
(272,34,c),
(236,106,o),
(163,223,o),
(163,249,cs),
(163,275,o),
(236,392,o),
(272,464,c),
(286,489,o),
(259,544,o),
(228,496,cs),
(91,296,o),
(76,275,o),
(76,249,cs)
);
},
{
closed = 1;
nodes = (
(253,228,o),
(264,211,o),
(360,49,cs),
(383,11,o),
(402,54,o),
(392,74,c),
(367,133,o),
(331,228,o),
(331,249,cs),
(331,270,o),
(367,365,o),
(392,424,c),
(402,444,o),
(383,489,o),
(360,451,cs),
(264,287,o),
(253,270,o),
(253,249,cs)
);
}
);
width = 600;
}
);
unicode = 171;
},
{
glyphname = quotesingle;
lastChange = "2025-03-11 16:25:05 +0000";
layers = (
{
layerId = m01;
shapes = (
{
closed = 1;
nodes = (
(255,599,o),
(218,593,o),
(203,575,cs),
(189,559,o),
(185,527,o),
(164,527,cs),
(143,527,o),
(138,567,o),
(121,583,cs),
(105,596,o),
(75,601,o),
(75,623,cs),
(75,645,o),
(113,650,o),
(127,668,cs),
(141,684,o),
(145,716,o),
(166,716,cs),
(187,716,o),
(192,676,o),
(209,661,cs),
(225,647,o),
(255,642,o),
(255,620,cs)
);
},
{
closed = 1;
nodes = (
(90,502,o),
(176,517,o),
(121,583,c),
(252,610,l),
(202,559,o),
(212,551,o),
(192,517,cs),
(177,491,o),
(142,440,o),
(114,425,cs),
(77,405,o),
(46,430,o),
(68,462,cs)
);
}
